<?xml version="1.0" encoding="UTF-8" standalone="no"?>
<svg
   width="25.177mm"
   height="23.042mm"
   viewBox="0 0 25.177 23.042"
   version="1.1">
  <g id="layer1">
    <path
       id="path981"
       style="fill:none;stroke:#000000;stroke-width:0.465;stroke-linecap:butt;stroke-linejoin:miter;stroke-miterlimit:4;stroke-dasharray:none;stroke-opacity:1"
       d="m 8.654576,1.0379321 c 1.444427,0 0.735157,-0.15399702 2.77406,-0.45236802 0.398712,-0.05835 0.803558,-0.06792 1.202227,-0.12655 0.319207,-0.04694 0.629727,-0.144198 0.949127,-0.189825 0.417592,-0.05966 0.843666,0 1.265499,0 h 2.088079 c 0.26031,0 1.860544,-0.08213 2.0248,0 0.287639,0.143819 0.253101,1.17377302 0.253101,1.45532702 v 2.467726 c 0,0.350113 -0.0386,0.728303 0,1.075675 0.05394,0.485489 0.06328,0.960495 0.06328,1.455327 0,0.389099 0.0771,0.880009 0,1.265499 -0.06439,0.32196 -0.148201,0.79925 -0.06328,1.13895 0.0072,0.0289 0.04994,0.0366 0.06328,0.0633 0.03567,0.0713 0,0.23061 0,0.31637 m -9.807638,0.44288 c -0.218191,-1.27166 -0.01175,-2.58441 0.06327,-3.85975 0.01767,-0.300622 -0.0304,-0.645118 0,-0.949124 0.06043,-0.604255 0.08638,-1.167022 0,-1.771703 -0.01193,-0.08352 0.02045,-0.171251 0,-0.2531 C 9.444851,2.7744251 9.483801,1.6779331 9.27728,1.4714161 9.25026,1.4443961 8.915076,1.1321251 8.834355,1.0917651 8.529703,0.93943908 6.651712,1.2637731 6.366628,1.2815901 c -0.395366,0.02471 -0.755806,0.07181 -1.138951,0.126551 -0.537565,0.0768 -1.104297,-0.05409 -1.645151,0 -0.303487,0.03035 -0.577521,0.06328 -0.885851,0.06328 -0.596842,0 -1.156097,0.12655 -1.77170002,0.12655 -0.07489,0 -0.354613,0.0264 -0.379651,0.12655 -0.08764,0.35056 0.0448,0.780539 0,1.138949 -0.357058,2.056853 -0.256208,4.465323 -0.268568,6.454053 0,0.42168 -0.09709,1.1302699 0,1.5186099 0.135206,1.47546 -0.2771860022,2.57027 0.679152,2.531 0.63429302,0.10142 1.45731002,-0.057 2.07587902,-0.10927 M 13.163256,9.5706231 c 0.857165,-0.25105 2.334585,0.0811 3.200836,-0.0633 0,0 0.536542,-0.0775 1.392049,-0.0633 0.688155,-0.11469 1.438768,-0.0633 2.151354,-0.0633 h 3.227025 c 0.0041,0 0.945248,-0.004 0.949126,0 0.08948,0.0895 0,0.2531 0,0.37965 0.279709,2.9179099 0.167652,4.3362599 0.506206,7.2766299 0.151911,1.21529 0.575456,3.01927 0.189826,4.17616 -0.05459,0.16375 -0.227733,0.72129 -0.379651,0.82257 -3.427526,0.72283 -3.645055,0.0476 -7.339907,0.0633 -0.526063,0 -1.39757,5.8e-4 -1.961525,0.0236 -0.535784,0.0359 -1.021652,0.10195 -1.645155,0.1266 -0.15638,0.0782 0.02183,0.0397 -0.126551,0.0397 M 3.139606,10.329923 c 3.342449,0.24722 6.655287,-0.8522599 9.364707,-0.8226099 0.09703,0 0.505603,-0.0639 0.569476,0 0.07457,0.0746 0,0.21092 0,0.31638 v 2.0247999 c -0.08084,1.3847 0.140067,2.60133 0.2531,3.92305 0.06814,0.8177 2.65e-4,1.64919 0.06328,2.46773 0.03348,0.43524 0.07588,0.73359 0.12655,1.13895 0.06657,0.53255 -0.06327,1.05646 -0.06327,1.58188 0,0.1537 -0.03795,1.1769 -0.126551,1.2655 -0.04326,0.0433 -0.188227,0.0633 -0.2531,0.0633 H 11.808296 8.328168 c -1.983228,-0.0962 -3.733887,0.55052 -5.548856,0.51929 -0.152895,-0.15289 -0.0444,-0.59697 -0.01935,-0.77237 -0.01644,-0.59698 0.06328,-1.03148 0.06328,-1.64515 0,-0.64084 -0.0074,-1.26186 0.06328,-1.89825 0.05567,-0.501 -0.04563,-1.01663 0,-1.5186 0.07725,-0.84976 0.126551,-1.67332 0.126551,-2.531 0.153579,-2.52795 -0.231017,-2.00231 0.12656,-4.11288 z" />
  </g>
</svg>
