<?xml version="1.0" encoding="UTF-8" standalone="no"?>
<!-- Created with Inkscape (http://www.inkscape.org/) -->

<svg
   width="40.280998mm"
   height="10.377mm"
   viewBox="0 0 40.280998 10.377"
   version="1.1"
   id="svg5">
  <defs
     id="defs2">
    <pattern
       id="EMFhbasepattern"
       patternUnits="userSpaceOnUse"
       width="6"
       height="6"
       x="0"
       y="0" />
    <pattern
       id="EMFhbasepattern-2"
       patternUnits="userSpaceOnUse"
       width="6"
       height="6"
       x="0"
       y="0" />
    <pattern
       id="EMFhbasepattern-1"
       patternUnits="userSpaceOnUse"
       width="6"
       height="6"
       x="0"
       y="0" />
  </defs>
  <g id="layer1">
    <g
       id="text1183"
       style="font-size:14.8001px;line-height:125%;font-family:'CS New Athanasius';letter-spacing:0px;word-spacing:0px;stroke-width:0.264583;fill:#666666"
       transform="translate(-58.357014,-109.84672)">
      <path
         d="m 64.362261,115.8446 h 1.286337 l 1.647667,1.43809 v -0.80215 l 1.394736,-1.47423 -1.416416,-1.42364 v -0.80216 l -1.625987,1.39474 h -1.286337 v -1.27911 l 1.401962,-1.62599 H 64.96207 l -1.423643,-1.42364 -1.467002,1.39473 h -0.809381 l 1.438096,1.6549 v 1.27911 h -1.293563 l -1.618761,-1.39474 v 0.80216 l -1.430869,1.42364 1.409189,1.47423 v 0.80215 l 1.640441,-1.43809 h 1.293563 v 1.34415 l -1.438096,1.64766 h 0.809381 l 1.467002,1.38751 1.423643,-1.40919 h 0.802153 l -1.401962,-1.62598 z"
         id="path7874"
         style="fill:#666666" />
      <path
         d="m 79.3358,115.8446 h 1.286337 l 1.647667,1.43809 v -0.80215 l 1.394736,-1.47423 -1.416415,-1.42364 v -0.80216 l -1.625988,1.39474 H 79.3358 v -1.27911 l 1.401963,-1.62599 h -0.802154 l -1.423643,-1.42364 -1.467002,1.39473 h -0.80938 l 1.438095,1.6549 v 1.27911 h -1.293563 l -1.618761,-1.39474 v 0.80216 l -1.430869,1.42364 1.409189,1.47423 v 0.80215 l 1.640441,-1.43809 h 1.293563 v 1.34415 l -1.438095,1.64766 h 0.80938 l 1.467002,1.38751 1.423643,-1.40919 h 0.802154 L 79.3358,117.18875 Z"
         id="path7876"
         style="fill:#666666" />
      <path
         d="m 94.309339,115.8446 h 1.286337 l 1.647668,1.43809 v -0.80215 l 1.394736,-1.47423 -1.416416,-1.42364 v -0.80216 l -1.625988,1.39474 h -1.286337 v -1.27911 l 1.401963,-1.62599 h -0.802154 l -1.423642,-1.42364 -1.467002,1.39473 h -0.809381 l 1.438096,1.6549 v 1.27911 h -1.293564 l -1.618761,-1.39474 v 0.80216 l -1.430869,1.42364 1.40919,1.47423 v 0.80215 l 1.64044,-1.43809 h 1.293564 v 1.34415 l -1.438096,1.64766 h 0.809381 l 1.467002,1.38751 1.423642,-1.40919 h 0.802154 l -1.401963,-1.62598 z"
         id="path7878"
         style="fill:#666666" />
    </g>
    <text
       style="font-style:normal;font-variant:normal;font-weight:400;font-size:3.88607px;line-height:125%;font-family:Aptos;text-align:start;letter-spacing:0px;word-spacing:0px;text-anchor:start;fill:#666666;fill-opacity:1;stroke:none;stroke-width:0.264583"
       x="69.645874"
       y="120.12275"
       id="text1189"><tspan
         x="69.645874"
         y="120.12275"
         id="tspan1187"
         style="stroke-width:0.264583;fill:#666666"><tspan
           dx="0"
           dy="0"
           style="font-style:normal;font-variant:normal;font-weight:400;font-size:3.88607px;font-family:Aptos;fill:#666666;stroke-width:0.264583"
           id="tspan1185"> </tspan></tspan></text>
    <text
       style="font-style:normal;font-weight:normal;font-size:10.5833px;line-height:1.25;font-family:sans-serif;fill:#666666;fill-opacity:1;stroke:none;stroke-width:0.264583"
       x="64.001411"
       y="115.03521"
       id="text3412"><tspan
         id="tspan3410"
         style="stroke-width:0.264583;fill:#666666"
         x="64.001411"
         y="115.03521" /></text>
    <text
       style="font-style:normal;font-variant:normal;font-weight:400;font-size:14.8001px;line-height:125%;font-family:'CS New Athanasius';text-align:start;letter-spacing:0px;word-spacing:0px;text-anchor:start;fill:#666666;fill-opacity:1;stroke:none;stroke-width:0.264583"
       x="59.300648"
       y="131.71625"
       id="text5001"><tspan
         x="59.300648"
         y="131.71625"
         id="tspan4999"
         style="stroke-width:0.264583;fill:#666666" /></text>
    <text
       style="font-style:normal;font-variant:normal;font-weight:400;font-size:3.88607px;line-height:125%;font-family:Aptos;text-align:start;letter-spacing:0px;word-spacing:0px;text-anchor:start;fill:#666666;fill-opacity:1;stroke:none;stroke-width:0.264583"
       x="70.596802"
       y="131.71625"
       id="text5007"><tspan
         x="70.596802"
         y="131.71625"
         id="tspan5005"
         style="stroke-width:0.264583;fill:#666666"><tspan
           dx="0"
           dy="0"
           style="font-style:normal;font-variant:normal;font-weight:400;font-size:3.88607px;font-family:Aptos;fill:#666666;stroke-width:0.264583"
           id="tspan5003"> </tspan></tspan></text>
    <text
       style="font-style:normal;font-variant:normal;font-weight:400;font-size:3.88607px;line-height:125%;font-family:Aptos;text-align:start;letter-spacing:0px;word-spacing:0px;text-anchor:start;fill:#666666;fill-opacity:1;stroke:none;stroke-width:0.264583"
       x="69.645874"
       y="131.41711"
       id="text3427"><tspan
         x="69.645874"
         y="131.41711"
         id="tspan3425"
         style="stroke-width:0.264583;fill:#666666"><tspan
           dx="0"
           dy="0"
           style="font-style:normal;font-variant:normal;font-weight:400;font-size:3.88607px;font-family:Aptos;fill:#666666;stroke-width:0.264583"
           id="tspan3423"> </tspan></tspan></text>
  </g>
</svg>
