<?xml version="1.0" encoding="UTF-8" standalone="no"?>
<svg
   width="22.080999mm"
   height="23.721001mm"
   viewBox="0 0 22.080999 23.721001"
   version="1.1">
  <g id="layer1">
    <path
       id="path5477"
       style="fill:none;stroke:#000000;stroke-width:0.565;stroke-linecap:butt;stroke-linejoin:miter;stroke-miterlimit:4;stroke-dasharray:none;stroke-opacity:1"
       d="m 9.7012507,3.3160108 v -0.40629 c 0,-0.2946 0.148666,-2.45158998 0,-2.60024998 -0.09031,-0.0903 -1.427898,0.073 -1.5439,0.0813 -1.335587,0.0954 -2.7233,0 -4.062891,0 -1.323383,-0.16222 -2.200263,0.28827 -3.25031401,0.40633 -0.110154,0.0551 -0.08126,0.69606998 -0.08126,0.81257998 0,0.40293 0.0038,0.75012 0.08126,1.13761 0.68999301,2.67937 -0.908591,8.0491902 -0.487549,9.8322002 0.06967,0.13934 0.282011,0.0813 0.406289,0.0813 0.27081401,0 1.18371101,0.0988 1.38138401,0 0.422973,-0.21149 1.182462,-0.24378 1.706414,-0.24378 M 14.46918,6.6273208 c -0.311779,-1.11609 0.140036,-2.11596 -0.461269,-3.06754 -0.319302,-0.0798 -0.813851,0 -1.137611,0 H 10.27005 7.2635097 c -0.680035,0 -1.37173,-0.0507 -2.031447,0.0813 -0.359704,0.0719 -1.004589,0.004 -1.218867,0.32503 -0.13566,0.20349 -0.08126,1.10668 -0.08126,1.46264 0,2.30975 -0.08126,4.5979802 -0.08126,6.9069102 0.08592,1.36151 0.0046,2.72858 0.406289,3.73787 0.138866,0.37887 0.667002,0.0859 1.46264,0.24381 0.505098,0.12628 0.935787,0.16252 1.462641,0.16252 M 17.745775,9.8489408 c -0.01132,-0.044 -0.02162,-3.30425 -0.08126,-3.36388 -0.0155,-0.0155 -1.454623,0 -1.462643,0 -1.032878,0 0.0903,-0.023 -1.056351,0.0813 -0.717458,0.0368 -6.9505063,0.11894 -7.6382363,0.73148 -0.04023,0.0402 0,1.8603 0,2.1127 0,0.8226902 -0.08126,1.6168802 -0.08126,2.4377402 0.03485,2.77794 -0.431609,4.4017 -1e-6,6.82566 0.126353,0.5985 0.13634,1.15223 0.162515,1.70641 0.09981,0.0998 0.625549,-0.051 0.731321,-0.0813 0.958586,-0.27388 1.8493963,-0.40629 2.8440253,-0.40629 m -0.162509,-9.58858 c 0.105465,3.63351 0.32503,6.51981 0.32503,10.15723 v 2.1127 c 0,0.0457 -0.02236,0.4801 0,0.48755 1.97884,0.009 3.618359,0.12441 5.281761,0.24377 0.396891,0.0331 0.742312,0.0813 1.137608,0.0813 0.416705,0 3.713573,0.18199 4.030584,-0.13502 -0.744817,-4.09043 -0.629715,-8.90649 -0.45524,-13.2725202 -0.440172,-0.11004 -1.013735,0.0345 -1.462643,0 -1.549855,-0.11922 -3.080975,-0.21049 -4.631696,-0.0813 -0.685567,0.0571 -2.158544,-0.15105 -2.762765,0 -0.07372,0.0184 -0.173816,0.1275402 -0.243774,0.1625202 -0.129276,0.0646 -1.108975,-0.043 -1.137611,0 -0.04751,0.0713 -0.05417,0.16251 -0.08126,0.24377 z" />
  </g>
</svg>
