<?xml version="1.0" encoding="UTF-8" standalone="no"?>
<svg
   width="20"
   height="25"
   viewBox="0 0 5.2916669 6.6145836"
   version="1.1">
  <g id="layer1">
    <g
       id="g886"
       transform="matrix(0.99965074,0,0,1.0002548,4.5158207e-5,-4.4586968e-5)">
      <path
         id="rect12906"
         style="fill:none;stroke:#343434;stroke-width:0.296737;stroke-linecap:square"
         d="M 0.14939266,0.14747725 H 5.1460815 V 6.4636761 H 0.14939266 Z" />
      <g
         id="g879">
        <path
           id="path12936"
           style="fill:none;stroke:#343434;stroke-width:0.291006;stroke-linecap:square"
           d="M 3.8922578,4.0254245 A 1.3897258,1.4053758 0 0 1 2.502532,5.4308003 1.3897258,1.4053758 0 0 1 1.1128062,4.0254245 1.3897258,1.4053758 0 0 1 2.502532,2.6200486 1.3897258,1.4053758 0 0 1 3.8922578,4.0254245 Z" />
        <g
           aria-label="i"
           transform="scale(0.9944164,1.005615)"
           id="text14710"
           style="font-size:2.94951px;line-height:1.25;font-family:'High Tower Text';-inkscape-font-specification:'High Tower Text, Normal';fill:#343434;stroke-width:0.0737372">
          <path
             d="m 2.6811199,3.2306799 q 0,0.066249 -0.050407,0.1238564 -0.048967,0.056167 -0.1080143,0.056167 -0.067689,0 -0.1108947,-0.040325 -0.043206,-0.040325 -0.043206,-0.1051339 0,-0.063368 0.051847,-0.1180956 0.053287,-0.054727 0.113775,-0.054727 0.1468995,0 0.1469,0.1382581 z M 2.840981,4.8609755 q -0.0072,0.041765 -0.034565,0.047526 -0.0072,0.00144 -0.069129,-0.00288 -0.2145884,-0.014402 -0.4219758,0.00576 -0.056167,0.00576 -0.070569,-0.00432 -0.014402,-0.010081 -0.014402,-0.046086 0,-0.033124 0.07633,-0.054727 0.083531,-0.024483 0.083531,-0.1598612 V 4.2690572 q 0,-0.113775 -0.023043,-0.1598611 -0.031684,-0.063368 -0.1310573,-0.096493 -0.044646,-0.015842 -0.044646,-0.047526 0,-0.041766 0.064809,-0.061928 0.120976,-0.037445 0.2145883,-0.099373 0.07489,-0.051847 0.092172,-0.051847 0.057608,0 0.056167,0.07489 -0.00576,0.3773299 -0.00576,0.7690617 0,0.093612 0.027364,0.1339377 0.030244,0.044646 0.1152153,0.063368 0.093612,0.021603 0.084971,0.067689 z"
             id="path836" />
        </g>
      </g>
    </g>
  </g>
</svg>
