<?xml version="1.0" encoding="UTF-8" standalone="no"?>
<svg
   width="287"
   height="226"
   viewBox="0 0 75.93542 59.795833"
   version="1.1">
	<defs
	   id="defs2">
		<filter
		   style="color-interpolation-filters:sRGB"
		   id="filter8977"
		   x="-0.0018590901"
		   y="-0.0032197658"
		   width="1.0037182"
		   height="1.0064395">
			<feGaussianBlur
			   stdDeviation="0.059196115"
			   id="feGaussianBlur8979" />
		</filter>
		<filter
		   style="color-interpolation-filters:sRGB"
		   id="filter8981"
		   x="-0.0022899688"
		   y="-0.011522414"
		   width="1.0045799"
		   height="1.0230448">
			<feGaussianBlur
			   stdDeviation="0.059196115"
			   id="feGaussianBlur8983" />
		</filter>
		<filter
		   style="color-interpolation-filters:sRGB"
		   id="filter8985"
		   x="-0.0070675775"
		   y="-0.016903294"
		   width="1.0150104"
		   height="1.0337436">
			<feGaussianBlur
			   stdDeviation="0.059196115"
			   id="feGaussianBlur8987" />
		</filter>
		<filter
		   style="color-interpolation-filters:sRGB"
		   id="filter8989"
		   x="-0.0066984076"
		   y="-0.11470192"
		   width="1.0133823"
		   height="1.2294038">
			<feGaussianBlur
			   stdDeviation="0.053274665"
			   id="feGaussianBlur8991" />
		</filter>
	</defs>
	<g
	   id="layer1"
	   transform="matrix(0.98998484,0,0,0.99725667,-1.9168611e-4,1.6260183e-4)">
		<g
		   id="g9142"
		   transform="translate(-59.693787,-74.716178)">
			<path
			   style="mix-blend-mode:normal;fill:#000000;fill-opacity:1;stroke-width:0.564999;paint-order:stroke fill markers;filter:url(#filter8977)"
			   id="path1618"
			   d="m 67.358677,118.32734 c -0.223419,0.004 -0.446908,0.004 -0.670359,0.003 -0.204882,-0.0125 -0.407006,0.0171 -0.609452,0.0431 -0.174799,0.0131 -0.322241,0.0721 -0.473485,-0.038 -0.187724,-0.253 -0.242924,-0.58025 -0.34404,-0.87396 -0.10269,-0.38282 -0.279707,-0.72536 -0.528402,-1.032 -0.286536,-0.3073 -0.665202,-0.49148 -1.041998,-0.66241 -0.348517,-0.14834 -0.709274,-0.26316 -1.074301,-0.36268 -0.27046,-0.0723 -0.538186,-0.15236 -0.813975,-0.20213 -0.02847,-0.005 -0.174942,-0.0289 -0.205367,-0.048 -0.193402,-0.12162 -0.309308,-0.52557 -0.376573,-0.72829 -0.135096,-0.46954 -0.184804,-0.95556 -0.124455,-1.44014 0.06021,-0.40335 0.153496,-0.80031 0.23617,-1.19934 0.07156,-0.4024 0.09355,-0.81174 0.105772,-1.21965 0.0072,-0.43734 0.0039,-0.87479 0.0013,-1.31217 0.01503,-0.59054 0.0468,-1.18046 0.06178,-1.77105 0.01889,-0.56516 0.01336,-1.13044 0.01177,-1.69575 -0.01693,-0.6456 0.02723,-1.2899 0.05049,-1.93464 0.02397,-0.66661 0.0019,-1.33252 -0.08942,-1.99312 -0.123749,-0.68902 -0.234154,-1.38044 -0.358259,-2.069388 -0.09225,-0.402524 -0.161865,-0.810342 -0.266579,-1.20991 -0.07248,-0.226367 -0.107532,-0.458682 -0.122944,-0.694976 -0.01191,-0.224256 -0.07726,-0.381968 0.113197,-0.543687 0.228216,-0.213402 0.512091,-0.358802 0.780299,-0.515797 -0.223576,0.129309 -0.448149,0.256905 -0.670724,0.387932 -0.04752,0.02797 0.09717,-0.05217 0.145489,-0.07874 0.04879,-0.02682 0.0977,-0.05344 0.14583,-0.08144 0.684554,-0.39811 0.793676,-0.437734 1.256475,-0.783751 0.358277,-0.262951 0.6595,-0.588912 0.943271,-0.928354 0.135358,-0.167013 0.296291,-0.318275 0.413152,-0.500145 0.189786,-0.295359 0.335939,-0.621622 0.494599,-0.934 0.12301,-0.256974 0.254529,-0.511868 0.352351,-0.78009 0.05951,-0.163173 0.05017,-0.245308 0.159951,-0.379613 0.385707,-0.167357 -0.142399,0.05659 -0.625943,0.398761 -0.03909,0.02766 0.09324,-0.02238 0.140613,-0.02937 0.180927,-0.02672 0.365479,-0.02492 0.547793,-0.0278 0.402952,-0.0043 0.805913,0.0035 1.208802,0.01 0.278363,0.006 0.556792,0.0031 0.835194,0.0035 0.494652,-0.03615 0.989722,-0.05894 1.485535,-0.07239 0.6428,-0.01839 1.285967,-0.01886 1.928976,-0.01654 0.538393,7.94e-4 1.076823,0.0045 1.615186,-0.0016 0.677326,-0.0043 1.354654,-0.0024 2.031974,0.0016 0.476702,0.0038 0.953423,0.0034 1.430136,0.0033 0.521391,0.02199 1.042347,0.04915 1.564095,0.06235 0.602777,0.01606 1.205815,0.01109 1.808734,0.01595 0.55049,0.004 1.101011,-0.0013 1.651524,0.0011 0.645269,-0.0058 1.290545,-0.0047 1.935832,-0.0019 0.435419,0.003 0.870847,0.0047 1.306272,0.0066 0.354139,7.93e-4 0.708273,5.29e-4 1.062413,-7.94e-4 0.462592,0.0021 0.925092,-0.0046 1.387684,-0.0048 0.537345,0.0062 1.074036,0.0032 1.610857,-0.02151 0.479674,-0.01736 0.957504,-0.03538 1.432878,-0.103973 0.483179,-0.06907 0.970886,-0.09657 1.455761,-0.151117 0.437655,-0.04528 0.873564,-0.100454 1.306629,-0.178266 0.390985,-0.06183 0.784741,-0.100822 1.176417,-0.158657 0.598617,-0.07355 1.199044,-0.285819 1.615043,-0.767699 0.133728,-0.157004 0.162192,-0.366556 0.226917,-0.556371 0.06117,-0.222134 0.127318,-0.443008 0.187653,-0.665483 0.09061,-0.301596 0.173363,-0.606488 0.241028,-0.91449 0.05967,-0.290078 0.0826,-0.585377 0.09533,-0.880673 0.0065,-0.184777 0.0058,-0.369697 0.0054,-0.554559 0.03956,-0.142301 0.04874,-0.250296 -0.07605,-0.346324 -0.210916,-0.07494 -0.446445,-0.05517 -0.66724,-0.05456 -0.376359,0.0011 -0.75271,0.0034 -1.129067,0.0048 -0.331462,-5.29e-4 -0.662921,-0.0029 -0.994386,-0.0021 -0.26039,7.93e-4 -0.520777,-0.0013 -0.781161,-0.0026 -0.313494,-0.02318 -0.479584,0.03103 -0.766776,0.163901 -0.594627,0.326142 -1.211011,0.637601 -1.720366,1.091303 -0.191354,0.147074 -0.352943,0.325149 -0.498668,0.516126 -0.09497,0.08559 -0.126333,0.23278 -0.23024,0.309705 -0.02265,0.01677 -0.101383,0.04895 -0.07731,0.03427 0.259098,-0.157988 0.521973,-0.309697 0.78296,-0.464545 -0.166433,-0.0024 -0.286522,-0.146727 -0.384553,-0.265083 -0.131461,-0.15921 -0.261919,-0.319032 -0.392652,-0.478975 -0.133554,-0.167471 -0.228513,-0.359191 -0.347457,-0.536189 -0.167282,-0.241906 -0.375078,-0.447246 -0.594399,-0.641191 -0.267155,-0.234823 -0.55667,-0.441891 -0.83447,-0.663702 -0.22725,-0.196408 -0.46234,-0.382604 -0.700899,-0.564954 -0.01873,-0.02151 -0.258964,-0.134266 -0.206711,-0.193932 0.0132,-0.01508 0.03649,-0.01704 0.05289,-0.02854 0.02784,-0.01953 0.05285,-0.04281 0.07928,-0.06422 0.228394,-0.192112 0.455806,-0.385236 0.676981,-0.585648 0.19679,-0.152593 0.373092,-0.328308 0.544656,-0.508301 0.175003,-0.189103 0.365418,-0.362514 0.555723,-0.536046 0.235254,-0.201134 0.447386,-0.424461 0.652732,-0.655296 0.172352,-0.205547 0.326438,-0.422204 0.466053,-0.65097 0.162928,-0.268418 0.316143,-0.541915 0.456316,-0.822894 0.142156,-0.270021 0.282895,-0.536411 0.376365,-0.827752 0.06027,-0.07652 0.08681,-0.383548 0.146185,-0.440473 0.0049,-0.0047 0.01344,0.0021 0.02016,0.0034 -1.33921,0.715082 -0.958432,0.178541 -0.802084,0.574874 0.03033,0.07688 0.05633,0.156755 0.08308,0.234989 0.04399,0.173416 0.120449,0.335616 0.176901,0.504809 0.08803,0.197837 0.179615,0.391766 0.256535,0.594548 0.100292,0.279019 0.169894,0.566082 0.271936,0.844841 0.115726,0.24996 0.237797,0.500804 0.426706,0.703935 0.120021,0.143502 0.257922,0.270981 0.370891,0.420283 0.102544,0.144642 0.231854,0.242107 0.398859,0.297696 0.236675,0.05148 0.480523,0.04557 0.72132,0.04639 0.325268,-1.11e-4 0.650521,-0.0021 0.975784,-0.0032 0.361121,0.0011 0.722304,-0.02392 1.07968,-0.07529 0.25237,-0.04491 0.507603,-0.06651 0.763412,-0.07776 0.675646,-0.0081 0.566055,-0.103492 1.364057,-0.60878 0.01307,-0.177977 -0.07077,-0.333057 -0.144825,-0.488293 -0.08679,-0.184558 -0.192868,-0.359358 -0.278095,-0.545426 -0.134964,-0.327678 -0.316265,-0.633119 -0.466387,-0.953939 -0.133083,-0.32757 -0.308419,-0.635021 -0.506997,-0.926777 -0.17517,-0.297119 -0.386009,-0.568225 -0.594508,-0.842203 -0.1855,-0.225656 -0.362649,-0.458097 -0.548511,-0.683506 -0.191254,-0.201063 -0.405164,-0.380765 -0.624779,-0.550075 -0.0369,-0.02463 -0.07384,-0.04923 -0.110701,-0.07393 -0.0276,-0.01849 -0.05692,-0.03469 -0.08267,-0.05568 -0.0094,-0.0076 -0.03316,-0.02598 -0.02151,-0.02925 0.01894,-0.0053 0.07191,0.0085 0.05568,0.01966 -0.516252,0.353692 -1.080458,0.619546 -0.6966,0.436346 0.185383,-0.07137 0.37865,-0.117065 0.561485,-0.19548 0.484426,-0.239302 0.974101,-0.479626 1.409459,-0.802016 0.233842,-0.17105 0.438071,-0.373488 0.614519,-0.602149 0.122073,-0.184576 0.231764,-0.377621 0.326094,-0.577826 0.09769,-0.227261 0.155212,-0.46777 0.226914,-0.703622 0.0698,-0.277572 0.138081,-0.555266 0.228365,-0.827342 0.0606,-0.217882 0.14138,-0.427924 0.224475,-0.637778 0.04266,-0.07614 0.07752,-0.344207 0.130275,-0.397497 0.0093,-0.0094 0.02622,-0.0026 0.03933,-0.0038 -0.958165,0.530395 -0.975797,0.1934 -0.785895,0.584772 0.0558,0.114993 0.103172,0.233299 0.154506,0.350311 0.09895,0.222139 0.215964,0.430874 0.36771,0.620903 0.194665,0.249798 0.423037,0.470524 0.649955,0.69047 0.286332,0.257587 0.540043,0.547515 0.822081,0.809267 0.234781,0.229622 0.463053,0.46178 0.739966,0.63998 0.262773,0.177387 0.555873,0.300741 0.838581,0.441679 0.249986,0.131316 0.514564,0.230929 0.778838,0.328888 0.003,0.01127 0.364754,0.09952 0.261802,0.120856 -0.106206,0.03088 -0.207438,0.108204 -0.286583,0.184931 -0.160451,0.125201 -0.300173,0.274421 -0.448392,0.413628 -0.205118,0.178777 -0.381193,0.38589 -0.562602,0.587725 -0.142531,0.137435 -0.289812,0.2667 -0.422677,0.413684 -0.131871,0.141687 -0.211781,0.314071 -0.30692,0.480401 -0.141764,0.277212 -0.265528,0.562716 -0.400103,0.843417 -0.116014,0.248812 -0.216066,0.505079 -0.279812,0.772325 -0.04468,0.194257 -0.05416,0.314774 0.07766,0.470013 0.114472,0.117332 0.271193,0.131493 0.424882,0.152612 0.278145,0.04846 0.560964,0.05132 0.840615,0.08527 0.300374,0.05823 0.601075,0.109712 0.905883,0.136951 0.240107,0.02117 0.481142,0.02159 0.72195,0.02312 0.218856,0.0028 0.437006,0.0049 0.654766,-0.01884 0.57605,-0.107947 1.07128,-0.476054 1.52821,-0.832305 0.23387,-0.162915 0.4615,-0.334952 0.66817,-0.531352 0.26251,-0.269264 0.49537,-0.564549 0.67573,-0.894599 0.022,-0.04822 0.0427,-0.09704 0.066,-0.144655 0.046,-0.09419 0.0864,-0.15566 0.12781,-0.251177 0.0487,-0.112266 0.0785,-0.231915 0.11795,-0.347522 0.0592,-0.133332 0.0552,-0.282276 0.0873,-0.421355 0.005,-0.02212 0.0448,-0.07455 0.025,-0.06331 -0.27226,0.155183 -0.52989,0.334719 -0.79483,0.502078 0.0208,0.0063 0.0439,0.0073 0.0623,0.01884 0.19094,0.119933 0.34894,0.383056 0.47559,0.564406 0.18478,0.265637 0.35013,0.543362 0.51547,0.821214 0.14805,0.286729 0.34594,0.533696 0.56323,0.769527 0.25406,0.248238 0.52122,0.48336 0.78866,0.717217 0.18184,0.13431 0.34502,0.286787 0.50039,0.449916 0.009,0.01045 0.1114,0.123105 0.11423,0.151045 0.006,0.05611 -0.2937,0.316267 -0.33201,0.351811 -0.35462,0.353357 -0.71442,0.702964 -1.0204,1.099985 -0.30803,0.410527 -0.52474,0.877974 -0.74072,1.341159 -0.19352,0.398632 -0.36424,0.808424 -0.51356,1.22554 -0.0723,0.213619 -0.1489,0.426394 -0.20775,0.644313 -0.0478,0.176943 -0.0451,0.271417 -0.1515,0.422849 -0.3915,0.1045 0.12149,-0.02492 0.71074,-0.44909 0.0247,-0.01781 -0.0581,-0.02035 -0.0834,-0.03733 -0.0413,-0.0277 -0.0783,-0.06151 -0.11462,-0.0955 -0.13323,-0.12477 -0.16093,-0.167513 -0.27832,-0.309182 -0.30053,-0.380965 -0.64852,-0.717314 -1.00952,-1.039706 -0.27282,-0.250868 -0.58197,-0.440643 -0.91884,-0.590024 -0.32025,-0.132355 -0.65407,-0.216543 -0.99638,-0.263882 -0.34648,-0.03651 -0.695309,-0.03618 -1.043276,-0.03968 -0.258019,-0.0104 -0.51331,0.0011 -0.769308,0.03171 -0.42844,0.07793 -0.994545,0.24244 -1.163034,0.66386 -0.02281,0.05706 -0.03839,0.162603 -0.04896,0.221843 -0.04388,0.300773 -0.01709,0.603967 0.0055,0.905113 0.02342,0.427612 0.158205,0.746019 0.348036,1.122066 0.191987,0.374449 0.45307,0.706255 0.689329,1.052984 0.229656,0.29564 0.460494,0.588674 0.662705,0.904121 0.150241,0.241019 0.285562,0.492122 0.412708,0.746188 0.03524,0.06141 0.06898,0.134662 0.127486,0.179586 0.222555,0.170897 0.719784,0.141187 0.983414,0.147431 0.60108,0.0053 1.1994,-0.06021 1.79867,-0.09676 0.57462,-0.03153 1.15024,-0.03711 1.72557,-0.03413 0.84084,0.02294 1.68188,0.03911 2.52252,0.06898 0.58884,0.02503 1.17681,0.06633 1.76603,0.08184 0.48474,0.01749 0.96977,0.0087 1.45466,0.0052 0.64002,-0.01992 1.28003,-0.06752 1.91752,-0.128299 0.43031,-0.02824 0.85385,-0.102036 1.27767,-0.177413 0.37109,-0.06944 0.7485,-0.08116 1.12477,-0.09147 0.48882,-0.0057 0.97767,-0.0054 1.46651,-0.0088 0.86211,0.0073 1.72172,0.08157 2.57956,0.16137 0.76337,0.06906 1.52419,0.158802 2.28894,0.212187 0.43862,0.03196 0.87837,0.03713 1.31794,0.04096 0.53392,-0.0071 1.0669,-0.04687 1.60064,-0.06556 0.63038,-0.0158 1.25996,-0.05255 1.88997,-0.07818 0.65321,-0.01831 1.30622,-0.02648 1.95749,-0.08296 0.28791,-0.03323 0.57682,-0.06047 0.86399,-0.09997 0.15179,-0.02088 0.29924,-0.04943 0.45225,-0.05823 0.0211,0.006 0.0444,0.0069 0.0635,0.01786 0.1026,0.05934 0.0901,0.341341 0.0929,0.438721 -0.007,0.274458 0.0861,0.537599 0.16513,0.796632 0.0967,0.292068 0.16858,0.590436 0.28346,0.876252 0.10464,0.180083 0.19252,0.373295 0.3128,0.544092 0.0107,0.01516 0.20049,0.255929 0.21497,0.274328 0.25559,0.300037 0.53026,0.583313 0.81709,0.853466 0.24663,0.219398 0.51951,0.410009 0.8075,0.571003 0.22684,0.133511 0.4579,0.258902 0.68305,0.39538 0.21679,0.130685 0.44657,0.236021 0.67582,0.342323 0.28466,0.144716 0.55632,0.311375 0.84274,0.453202 0.18894,0.100216 0.40043,0.144129 0.5924,0.236302 0.18532,0.171201 0.1767,0.459883 0.19155,0.693838 0.0378,0.3844 0.0976,0.766022 0.13398,1.150708 0.0538,0.60651 0.0396,1.21579 0.0561,1.8237 0.0161,0.50637 0.0707,1.01097 0.13663,1.51303 0.0752,0.38211 0.1272,0.76781 0.17498,1.15412 0.0787,0.5481 0.14112,1.09796 0.2046,1.64793 0.0728,0.56336 0.14811,1.12657 0.21164,1.69108 0.0359,0.4425 0.0829,0.88397 0.11254,1.327 0.0239,0.36282 0.0247,0.72643 0.0277,1.08983 -0.0121,0.26205 0.0222,0.52968 -0.0171,0.7898 0.12599,-0.008 -0.1751,0.15782 -0.12814,0.12957 1.3427,-0.80802 1.00306,-0.49654 0.65697,-0.42797 -0.20343,0.0215 -0.40869,0.0136 -0.61293,0.0136 -0.35603,0.001 -0.71208,0.002 -1.06811,-3e-5 -0.28359,-0.01 -0.56619,0.004 -0.8465,0.0475 -0.57623,0.18095 -1.10428,0.50596 -1.57755,0.87931 -0.21336,0.15738 -0.36585,0.36427 -0.50952,0.58313 -0.14829,0.25569 -0.24569,0.49893 -0.31913,0.78387 -0.0929,0.35022 -0.14528,0.71045 -0.18432,1.07031 -0.0141,0.29984 0.0735,0.58928 0.1481,0.87636 0.0757,0.30594 0.19479,0.59599 0.31401,0.88664 0.0908,0.25265 0.19207,0.50025 0.28001,0.75398 0.0759,0.19986 0.12499,0.40871 0.19344,0.61063 0.01,0.0541 0.12277,0.25926 0.0391,0.3025 -0.0242,0.0125 -0.0534,0.0105 -0.0802,0.0158 1.37488,-0.76135 0.83397,-0.44792 0.47472,-0.35399 -0.15816,0.0414 -0.31724,0.0625 -0.47927,0.0815 -0.31032,0.031 -0.62139,0.0371 -0.93221,0.0144 -0.31324,-0.0404 -0.62654,-0.0832 -0.93726,-0.14025 -0.20504,-0.0364 -0.41199,-0.0587 -0.61714,-0.0944 -0.008,-0.0113 -0.80927,0.54992 -0.80134,0.56125 v 0 c 0.20629,0.0363 0.41313,0.062 0.62051,0.0914 0.31383,0.0561 0.62971,0.096 0.94452,0.14657 0.31537,0.0295 0.62974,0.0276 0.94564,-0.002 0.7339,-0.0675 0.96977,-0.20231 1.69769,-0.6654 0.0194,-0.027 0.0448,-0.0506 0.0583,-0.0811 0.047,-0.10667 -0.0481,-0.25232 -0.0713,-0.35224 -0.0705,-0.2007 -0.12543,-0.40725 -0.20064,-0.60662 -0.0875,-0.25573 -0.19484,-0.50281 -0.28473,-0.75761 -0.11643,-0.28641 -0.24203,-0.56925 -0.31282,-0.87175 -0.0683,-0.27835 -0.1438,-0.5594 -0.1279,-0.8487 0.0339,-0.35623 0.0844,-0.71222 0.19035,-1.0551 0.0784,-0.26631 0.18509,-0.5227 0.33575,-0.75719 0.14459,-0.21208 0.31317,-0.40148 0.52146,-0.55401 0.2752,-0.20893 0.78967,-0.49341 -0.49293,0.24983 -0.043,0.0249 0.0869,-0.0485 0.13144,-0.0705 0.0433,-0.0214 0.0876,-0.041 0.13212,-0.0599 0.0398,-0.0169 0.0804,-0.0315 0.12064,-0.0473 0.27679,-0.0617 0.56208,-0.0744 0.84495,-0.0691 0.35295,-8e-4 0.70594,1.7e-4 1.05884,0.006 0.20452,0.003 0.40912,0.006 0.61364,0.002 0.45643,-0.03 1.03624,-0.26501 1.14169,-0.72855 0.0161,-0.26417 -0.005,-0.52949 0.001,-0.79399 -0.003,-0.36389 -0.0147,-0.72787 -0.0387,-1.09101 -0.0337,-0.44344 -0.0769,-0.88617 -0.1192,-1.32884 -0.073,-0.56181 -0.15559,-1.12235 -0.22134,-1.68511 -0.0608,-0.55189 -0.12287,-1.10341 -0.19289,-1.65423 -0.0409,-0.38878 -0.091,-0.77568 -0.17231,-1.15838 -0.0748,-0.4949 -0.12596,-0.9937 -0.15194,-1.4936 -0.0245,-0.61443 -0.004,-1.22951 -0.0323,-1.843483 -0.0428,-0.382228 -0.11145,-0.761717 -0.13371,-1.146048 -0.0151,-0.276889 -0.0208,-0.581007 -0.2302,-0.788779 -0.19024,-0.101753 -0.40321,-0.143875 -0.59888,-0.234193 -0.28933,-0.137917 -0.56911,-0.289163 -0.84439,-0.453456 -0.22526,-0.10809 -0.45272,-0.211662 -0.6709,-0.333762 -0.22713,-0.135834 -0.45455,-0.270253 -0.68496,-0.400354 -0.28893,-0.145523 -0.55634,-0.333123 -0.80043,-0.545142 -0.285,-0.26503 -0.56589,-0.536467 -0.80826,-0.841976 -0.19762,-0.248142 -0.37341,-0.508841 -0.50981,-0.796559 -0.11353,-0.282425 -0.18639,-0.578104 -0.28139,-0.867003 -0.0732,-0.253447 -0.15478,-0.510543 -0.14831,-0.777348 -0.008,-0.223195 -0.001,-0.481534 -0.23484,-0.588931 -0.16504,0.003 -0.31469,0.03872 -0.47738,0.06556 -0.29213,0.04819 -0.58742,0.07771 -0.88074,0.117054 -0.64486,0.06199 -1.29126,0.0617 -1.93843,0.07474 -0.63265,0.02664 -1.26423,0.08113 -1.89771,0.08495 -0.52653,0.01519 -1.05266,0.04614 -1.57917,0.05414 -0.44399,2.64e-4 -0.88808,-0.0032 -1.33165,-0.02432 -0.77485,-0.0412 -1.54604,-0.123399 -2.31921,-0.187105 -0.84985,-0.07707 -1.6986,-0.176062 -2.5527,-0.191035 -0.4853,-0.0043 -0.97062,-0.0074 -1.45592,-0.0013 -0.37703,0.0038 -0.75553,0.0083 -1.12795,0.07446 -0.42661,0.07962 -0.85245,0.161912 -1.28618,0.193247 -0.63813,0.06878 -1.27939,0.121666 -1.92084,0.142644 -0.47978,-0.0039 -0.95952,-0.0099 -1.4393,-0.01349 -0.59681,-0.01349 -1.19338,-0.03493 -1.78968,-0.06312 -0.83908,-0.03503 -1.67954,-0.02993 -2.51845,-0.07376 -0.57184,-0.02315 -1.14413,-0.0099 -1.71576,0.01741 -0.60121,0.03518 -1.2003,0.11045 -1.80309,0.109461 -0.19966,-0.0038 -0.72695,0.0066 -0.90491,-0.106516 -0.0536,-0.03408 -0.0872,-0.103955 -0.11812,-0.154567 -0.13328,-0.254587 -0.26856,-0.509754 -0.424877,-0.750848 -0.207145,-0.313192 -0.436105,-0.608814 -0.669145,-0.903047 -0.235947,-0.341447 -0.491247,-0.671851 -0.686123,-1.039391 -0.170614,-0.34716 -0.307218,-0.699934 -0.325318,-1.091597 -0.01974,-0.29532 -0.03083,-0.594003 0.02098,-0.886957 0.02035,-0.07532 0.02511,-0.12142 0.07069,-0.185598 0.01524,-0.02148 0.07924,-0.06805 0.0559,-0.05585 -1.4713,0.768598 -0.909534,0.446519 -0.581017,0.364987 0.255915,-0.02878 0.509579,-0.06083 0.768225,-0.04529 0.345911,-0.0011 0.6925,-7.94e-4 1.037379,0.02928 0.336989,0.03874 0.665366,0.113991 0.981346,0.24039 0.33092,0.143886 0.64038,0.318714 0.91386,0.557927 0.36166,0.314672 0.70135,0.650438 0.99722,1.029025 0.44808,0.553583 0.69766,0.957091 1.4828,-0.0021 0.14509,-0.338344 0.17171,-0.734664 0.33308,-1.071499 0.15553,-0.411853 0.32535,-0.818282 0.51327,-1.216499 0.21462,-0.458383 0.43778,-0.916868 0.74747,-1.320062 0.31739,-0.391967 0.67679,-0.74573 1.04127,-1.09379 0.12195,-0.117941 0.34195,-0.28027 0.28555,-0.481303 -0.008,-0.02942 -0.11178,-0.146505 -0.12576,-0.163058 -0.15664,-0.168455 -0.32136,-0.323114 -0.51084,-0.455885 -0.26982,-0.225718 -0.54037,-0.453051 -0.78767,-0.70327 -0.20821,-0.234336 -0.40634,-0.473935 -0.55116,-0.754613 -0.16808,-0.278887 -0.33196,-0.560171 -0.51964,-0.826712 -0.17067,-0.243805 -0.33907,-0.497049 -0.5771,-0.681305 -0.29754,0.170466 -0.60443,0.325557 -0.89262,0.5114 -0.0208,0.01344 -0.01,0.04866 -0.0138,0.07313 -0.0226,0.136737 -0.0441,0.273733 -0.0932,0.404331 -0.0813,0.251741 -0.18498,0.49176 -0.31347,0.72367 -0.18394,0.319103 -0.41298,0.6091 -0.68077,0.862729 -0.21736,0.188069 -0.44798,0.359119 -0.68078,0.527585 -0.28411,0.211963 -0.79945,0.49286 0.49121,-0.240059 0.071,-0.04031 -0.14595,0.07508 -0.22399,0.09907 -0.0345,0.01061 -0.0699,0.01818 -0.10486,0.02727 -0.21576,0.02903 -0.43054,0.03412 -0.64833,0.02914 -0.24042,1.93e-4 -0.48101,-0.0011 -0.721125,-0.01445 -0.304734,-0.02148 -0.606748,-0.06456 -0.90559,-0.128778 -0.274473,-0.04962 -0.555162,-0.03902 -0.829926,-0.09133 -0.128487,-0.02445 -0.272865,-0.0168 -0.38127,-0.09987 -0.0024,-0.0028 -0.05726,-0.06203 -0.06161,-0.07121 -0.04523,-0.09534 0.0097,-0.215246 0.02027,-0.311004 0.06619,-0.258807 0.164918,-0.507534 0.277694,-0.749483 0.134538,-0.283003 0.259617,-0.570865 0.416488,-0.842645 0.09335,-0.161713 0.179676,-0.325884 0.314267,-0.459081 0.136157,-0.141472 0.287449,-0.267438 0.418552,-0.41411 0.17992,-0.201668 0.360686,-0.402468 0.564957,-0.580305 0.14781,-0.142761 0.297963,-0.283236 0.459103,-0.411041 0.0959,-0.06839 0.23514,-0.12931 0.26786,-0.249306 -0.0213,-0.172614 -0.20457,-0.190064 -0.34521,-0.23432 -0.262606,-0.09756 -0.531528,-0.181608 -0.779731,-0.314246 -0.276733,-0.146976 -0.573439,-0.256543 -0.832302,-0.435327 -0.274937,-0.171963 -0.505034,-0.39579 -0.738601,-0.619575 -0.279307,-0.262892 -0.53635,-0.548121 -0.813543,-0.81339 -0.227031,-0.213024 -0.450977,-0.431548 -0.638022,-0.681577 -0.143809,-0.184928 -0.260416,-0.384649 -0.356251,-0.598723 -0.0648,-0.148714 -0.120261,-0.302728 -0.191254,-0.448649 -0.01603,-0.03297 -0.01762,-0.110291 -0.05181,-0.09702 -0.313441,0.121743 -0.596842,0.309912 -0.895263,0.464868 -0.04812,0.145783 -0.08991,0.293653 -0.141586,0.43819 -0.08231,0.209613 -0.15027,0.423653 -0.213471,0.639762 -0.08454,0.274368 -0.155414,0.551947 -0.228529,0.829395 -0.06911,0.233839 -0.135694,0.469672 -0.238823,0.691404 -0.09824,0.192407 -0.202714,0.382968 -0.331259,0.55708 -0.18002,0.219951 -0.390022,0.412332 -0.623125,0.575445 -0.312248,0.20824 -0.410996,0.269967 0.622646,-0.340987 0.03185,-0.01881 -0.06878,0.02732 -0.10251,0.04251 -0.08784,0.03953 -0.167029,0.09407 -0.255862,0.131524 -0.175842,0.09351 -0.366596,0.143436 -0.557282,0.19784 -0.337058,0.125388 -1.098349,0.318153 -0.979799,0.663673 0.03087,0.08997 0.18492,0.106002 0.240755,0.168933 0.217254,0.160237 0.419933,0.341728 0.610666,0.532501 0.187817,0.222649 0.366948,0.452453 0.553685,0.675997 0.210664,0.270428 0.413391,0.544946 0.592969,0.83703 0.198408,0.285941 0.363625,0.593255 0.49866,0.914183 0.155077,0.317305 0.334616,0.624047 0.456864,0.956215 0.08155,0.188815 0.188023,0.364443 0.273381,0.550998 0.0541,0.113948 0.156255,0.267369 0.09258,0.393266 0.266679,-0.152141 0.53121,-0.308118 0.800042,-0.456428 0.0218,-0.01204 -0.03634,0.0348 -0.058,0.04706 -0.123957,0.0702 -0.274299,0.03927 -0.409025,0.05002 -0.259273,0.0095 -0.519276,0.02453 -0.774782,0.07224 -0.354782,0.05995 -0.714269,0.09457 -1.074491,0.08994 -0.323593,-3.7e-5 -0.647179,7.94e-4 -0.970767,2.64e-4 -0.232518,-0.0013 -0.466463,0.0011 -0.697238,-0.03125 -0.156384,-0.03446 -0.269811,-0.112787 -0.364394,-0.243665 -0.115385,-0.153321 -0.257665,-0.281713 -0.380212,-0.429096 -0.188923,-0.183963 -0.305501,-0.425509 -0.414078,-0.662718 -0.09714,-0.280961 -0.173286,-0.567381 -0.266973,-0.849313 -0.07453,-0.202774 -0.166558,-0.396168 -0.249547,-0.595227 -0.05871,-0.168384 -0.131789,-0.331769 -0.177114,-0.504759 -0.214474,-0.626978 -0.08484,-0.429805 -1.060231,0.05426 -0.0026,0.158916 -0.09699,0.310734 -0.131064,0.463055 -0.09688,0.284819 -0.24266,0.545192 -0.378452,0.812795 -0.142108,0.278172 -0.29618,0.549822 -0.461192,0.815102 -0.144228,0.222866 -0.301364,0.436398 -0.475272,0.637246 -0.204107,0.228502 -0.420774,0.443743 -0.652713,0.644289 -0.192797,0.175112 -0.383218,0.353185 -0.559898,0.544751 -0.171858,0.176845 -0.353669,0.342678 -0.543386,0.500309 -0.223821,0.200874 -0.455541,0.392456 -0.680548,0.591925 -0.02529,0.02971 -0.05757,0.05468 -0.07591,0.08912 -0.09237,0.173527 0.11008,0.277381 0.230161,0.346151 0.244435,0.175096 0.479279,0.362157 0.708691,0.556427 0.278178,0.217458 0.563169,0.426442 0.824884,0.66394 0.214887,0.186068 0.424908,0.379259 0.576149,0.623012 0.122102,0.17816 0.216723,0.373076 0.351787,0.542636 0.127675,0.16265 0.263009,0.318768 0.392409,0.479754 0.119658,0.150931 0.251248,0.286728 0.437105,0.354015 0.987655,-0.521232 0.788691,-0.28574 1.215593,-0.858663 0.146474,-0.18311 0.313878,-0.347155 0.496417,-0.494533 0.125958,-0.105428 0.25354,-0.20212 0.389774,-0.294103 0.05063,-0.03419 0.206515,-0.130304 0.152733,-0.101319 -0.01418,0.0076 -1.063175,0.604141 -0.474491,0.269412 0.136203,-0.06847 0.288327,-0.161571 0.442111,-0.187365 0.09192,-0.01543 0.191498,0.01302 0.28393,-2.65e-4 0.262818,-0.0013 0.525642,-0.0034 0.788466,-0.0026 0.334275,5.29e-4 0.668541,-0.0024 1.002811,-0.0037 0.37371,1.8e-4 0.747418,-6.4e-5 1.121127,2.65e-4 0.207158,0.0021 0.415231,8.9e-5 0.621368,0.02349 0.106683,0.03005 0.02275,0.174233 0.03043,0.254365 0.0011,0.182665 0.0028,0.365371 -0.0016,0.54801 -0.0097,0.288491 -0.03161,0.577027 -0.0929,0.859806 -0.07,0.308417 -0.161652,0.611309 -0.252492,0.914122 -0.06428,0.220737 -0.124179,0.442772 -0.191595,0.662527 -0.0588,0.184322 -0.102415,0.378333 -0.248494,0.516218 -0.289414,0.250076 -0.04227,0.02895 0.684003,-0.36826 0.0358,-0.01958 -0.06366,0.05223 -0.100308,0.07017 -0.160859,0.07874 -0.35087,0.08255 -0.523018,0.113747 -0.390401,0.0602 -0.782688,0.09649 -1.173507,0.152662 -0.435231,0.08146 -0.871937,0.149606 -1.31315,0.190849 -0.482307,0.05935 -0.967672,0.08308 -1.449957,0.142412 -0.47693,0.07896 -0.956138,0.105357 -1.439116,0.121283 -0.535734,0.02588 -1.071301,0.0271 -1.607635,0.02468 -0.458189,-2.49e-4 -0.916278,-0.0071 -1.374471,-0.0048 -0.353401,-0.0013 -0.706797,-0.0016 -1.060198,-7.94e-4 -0.441484,0.0019 -0.882968,0.0036 -1.324444,0.0066 -0.643797,0.0029 -1.287584,0.0041 -1.931368,-0.0013 -0.551508,0.0029 -1.103013,-0.0019 -1.654506,0.0013 -0.602453,0.0028 -1.204875,-0.0024 -1.807225,-0.01413 -0.519507,-0.01434 -1.038315,-0.04047 -1.557126,-0.07051 -0.479698,-1.48e-4 -0.959403,-5.29e-4 -1.439088,0.0032 -0.67855,0.0038 -1.357111,0.0058 -2.035664,0.0011 -0.536948,-0.0065 -1.073991,-0.0033 -1.610974,-0.0019 -0.643033,0.0044 -1.286081,0.0063 -1.929093,0.01363 -0.488333,0.01352 -0.977196,0.02514 -1.464503,0.06041 -0.278741,2.4e-5 -0.557466,-0.0031 -0.836208,-0.0019 -0.40486,-5.1e-5 -0.809725,-0.0021 -1.214551,-0.0078 -0.688914,7.94e-4 -1.158615,0.0062 -1.739662,0.621355 -0.06115,0.126185 -0.08497,0.253889 -0.131127,0.386181 -0.09134,0.261768 -0.214199,0.511654 -0.332888,0.761582 -0.101016,0.197945 -0.233953,0.466955 -0.348615,0.657021 -0.16737,0.277434 -0.375457,0.524026 -0.588997,0.766307 -0.288716,0.336154 -0.600059,0.652833 -0.96143,0.911953 -0.05059,0.0372 -0.100671,0.07509 -0.151765,0.111593 -0.04858,0.03471 -0.199824,0.130294 -0.147235,0.102021 0.23427,-0.125952 0.461753,-0.264139 0.693049,-0.39547 0.04829,-0.02742 -0.09536,0.05696 -0.144012,0.08373 -0.04919,0.02706 -0.100632,0.04994 -0.149413,0.07772 -0.328668,0.187209 -0.655212,0.378127 -0.982816,0.56719 -0.274841,0.161124 -0.563608,0.315489 -0.783236,0.550802 -0.14478,0.216379 -0.09163,0.367697 -0.077,0.612571 0.01995,0.241419 0.0571,0.478192 0.138618,0.707623 0.109554,0.393338 0.186698,0.795139 0.286047,1.191103 0.136226,0.68429 0.254407,1.37233 0.362212,2.06163 0.08638,0.65645 0.109481,1.31903 0.07809,1.98068 -0.02663,0.64535 -0.05631,1.29073 -0.04709,1.93685 -0.0033,0.56544 -0.01048,1.13091 -0.01796,1.69631 -0.01558,0.59274 -0.04064,1.18504 -0.06849,1.77732 -0.0016,0.43793 -5.29e-4,0.87592 -0.01143,1.31376 -0.01323,0.40316 -0.03126,0.80794 -0.112435,1.20429 -0.08333,0.40031 -0.174646,0.79945 -0.227195,1.2054 -0.0453,0.49718 0.0065,0.99342 0.148923,1.47295 0.07559,0.23423 0.200682,0.66024 0.399579,0.82142 0.031,0.0251 0.181208,0.052 0.214895,0.0591 0.278286,0.0396 0.546973,0.11581 0.818504,0.18659 0.362181,0.0976 0.721829,0.20188 1.067372,0.35013 0.368459,0.15534 0.739965,0.32793 1.016876,0.62526 0.249499,0.29151 0.409897,0.62939 0.51395,0.99855 0.09963,0.31477 0.163743,0.65519 0.353388,0.93064 0.184817,0.17297 0.286499,0.12603 0.520303,0.1043 0.201113,-0.0247 0.40073,-0.0665 0.604393,-0.0546 0.220761,-8e-4 0.441561,-0.002 0.662289,0.003 0.0082,0.0113 0.808504,-0.57012 0.80028,-0.58143 z" />
			<g
			   id="g8959"
			   style="mix-blend-mode:normal;filter:url(#filter8981)">
				<path
				   style="fill:#000000;fill-opacity:1;stroke-width:0.564999;paint-order:stroke fill markers"
				   id="path2396"
				   d="m 66.021645,95.290139 c 0.05858,0.370543 0.142116,0.736407 0.207888,1.105641 0.07132,0.404532 0.09766,0.814503 0.10862,1.224502 0.01744,0.615839 0.02143,1.232233 0.02275,1.848326 0.0055,0.732142 -0.0051,1.464272 -0.006,2.196402 -0.0066,0.64053 -0.03616,1.28069 -0.0607,1.92076 -0.014,0.55169 -0.02376,1.10352 -0.02815,1.65537 -0.0021,0.18688 -0.0047,0.37375 -0.0062,0.56064 0.0062,0.0122 0.869813,-0.42779 0.86359,-0.44 v 0 c -0.0013,-0.18487 -0.0038,-0.36973 -0.0048,-0.55461 -3e-6,-0.54882 -0.0013,-1.09774 0.01622,-1.64637 0.01606,-0.64091 0.06073,-1.28119 0.05729,-1.92233 -2.65e-4,-0.73055 -0.0099,-1.461114 -0.0033,-2.191663 0.0021,-0.622613 0.01164,-1.245164 0.0079,-1.867821 -0.0182,-0.412716 -0.0435,-0.825579 -0.123042,-1.231972 -0.06472,-0.373782 -0.149146,-0.745257 -0.178252,-1.124037 -0.0066,-0.01236 -0.880386,0.454806 -0.873779,0.467162 z" />
				<path
				   style="fill:#000000;fill-opacity:1;stroke-width:0.564999;paint-order:stroke fill markers"
				   id="path2398"
				   d="m 72.823402,95.615343 c 0.01603,0.436153 0.01916,0.872826 0.01876,1.309249 -0.0016,0.511968 -0.0024,1.023903 -0.0036,1.53585 0.01146,0.481225 -0.02339,0.961483 -0.05082,1.441598 -0.01691,0.54021 -0.02259,1.08064 -0.02817,1.62106 -0.0028,0.50362 -0.0019,1.00724 -0.0019,1.51087 2.52e-4,0.41489 -0.003,0.8298 -0.0068,1.24468 -0.0011,0.26564 -0.0038,0.53128 -0.0037,0.79692 0.0063,0.0123 0.877753,-0.43171 0.871474,-0.44403 v 0 c 6.3e-5,-0.26438 -0.0027,-0.52875 -0.0038,-0.79313 -0.004,-0.41245 -0.0075,-0.82492 -0.0076,-1.23739 -2.65e-4,-0.50325 -5.29e-4,-1.00651 0.0011,-1.50976 0.0011,-0.53985 0.0047,-1.08001 0.0342,-1.619189 0.02283,-0.481576 0.0605,-0.962657 0.04692,-1.44522 -0.0013,-0.510738 -0.0019,-1.021461 -0.0036,-1.532218 -5.3e-4,-0.442804 0.003,-0.885833 0.01876,-1.328377 -0.0063,-0.01246 -0.887736,0.436623 -0.881383,0.449087 z" />
				<path
				   style="fill:#000000;fill-opacity:1;stroke-width:0.564999;paint-order:stroke fill markers"
				   id="path2400"
				   d="m 66.374866,102.02702 c 0.422445,-0.0621 0.826844,-0.20135 1.231157,-0.33317 0.44895,-0.13183 0.88533,-0.3016 1.325467,-0.45933 0.402728,-0.12591 0.806212,-0.24935 1.20776,-0.37896 0.428296,-0.14801 0.854792,-0.30163 1.285351,-0.44291 0.333036,-0.10246 0.660945,-0.22058 0.990253,-0.33431 0.0085,0.0109 0.776309,-0.589589 0.767816,-0.600448 v 0 c -0.327084,0.128498 -0.665086,0.232765 -0.997702,0.34594 -0.435351,0.132345 -0.859869,0.300638 -1.291013,0.446358 -0.398912,0.1302 -0.801079,0.2508 -1.202836,0.3719 -0.445471,0.15597 -0.881805,0.33954 -1.335685,0.47088 -0.392062,0.12381 -0.781714,0.26647 -1.190556,0.32493 -0.0083,-0.0112 -0.798343,0.57795 -0.790012,0.58912 z" />
				<path
				   style="fill:#000000;fill-opacity:1;stroke-width:0.564999;paint-order:stroke fill markers"
				   id="path2402"
				   d="m 79.790646,101.54982 c -0.01828,-0.29238 0.01733,-0.58454 0.04151,-0.87565 0.02447,-0.35635 0.01294,-0.715112 -0.03204,-1.069315 -0.03614,-0.362468 -0.150125,-0.70767 -0.289968,-1.04185 -0.09636,-0.244792 -0.246467,-0.462753 -0.439279,-0.640582 -0.149561,-0.145016 -0.332881,-0.209979 -0.52832,-0.263877 -0.181711,-0.06326 -0.371618,-0.07934 -0.56215,-0.0906 -0.556046,0.0013 -1.036145,0.369191 -1.468027,0.691668 -0.195784,0.161989 -0.3487,0.355248 -0.485677,0.567206 -0.142994,0.178213 -0.245822,0.38196 -0.319739,0.597098 -0.09433,0.233744 -0.151857,0.476478 -0.182398,0.725882 -0.02058,0.19276 -0.02262,0.38675 -0.02342,0.5804 4e-5,0.1985 0.0031,0.39697 0.0042,0.59546 0.0013,0.23442 2.64e-4,0.46884 -1.43e-4,0.70326 0.0016,0.28636 0.0049,0.57268 0.0036,0.85904 -0.0013,0.28494 -0.0084,0.56824 0.02283,0.85172 0.03565,0.2628 0.132331,0.50435 0.247026,0.74111 0.137877,0.28316 0.323061,0.54067 0.517313,0.78746 0.166754,0.19633 0.376936,0.3307 0.610576,0.43153 0.238657,0.0888 0.493139,0.11297 0.742704,0.15357 0.247375,0.0458 0.430779,0.0745 0.670116,-0.0205 0.568978,-0.29939 1.01328,-0.41221 1.176933,-0.97798 0.09014,-0.24102 0.128322,-0.49581 0.186412,-0.74504 0.05948,-0.26242 0.111942,-0.52584 0.143483,-0.79319 0.01474,-0.27899 0.04503,-0.55507 0.07872,-0.83225 0.0268,-0.29635 0.0338,-0.59443 0.03805,-0.8919 0.007,-0.32057 2.65e-4,-0.64114 -0.0024,-0.96172 -0.0049,-0.45568 -0.0082,-0.91142 0.0024,-1.367049 0.03073,-0.419063 0.188968,-0.345059 -0.87195,0.403799 -0.01257,0.0089 0.0073,0.315699 0.0082,0.4108 0.0013,0.3277 -7.94e-4,0.65541 7.94e-4,0.98311 0.0066,0.43896 -0.0034,0.87832 0.01746,1.31685 0.04872,0.41338 0.06797,0.83194 0.158531,1.23897 0.09944,0.34429 0.351581,0.58481 0.619381,0.80482 0.278614,0.20989 0.575321,0.39361 0.865976,0.586 0.208751,0.1413 0.417947,0.28235 0.638464,0.40468 0.0075,0.0115 0.822489,-0.52136 0.814953,-0.53289 v 0 c -0.222631,-0.11515 -0.429355,-0.25645 -0.637495,-0.39566 -0.291385,-0.1852 -0.582938,-0.37065 -0.858652,-0.57884 -0.256625,-0.20259 -0.500983,-0.41758 -0.589029,-0.74693 -0.08954,-0.39961 -0.121221,-0.80955 -0.164544,-1.21613 -0.01283,-0.44021 -0.0043,-0.88032 -0.0019,-1.32064 0.0016,-0.32793 -5.29e-4,-0.655864 7.94e-4,-0.983797 0.0011,-0.10178 0.0013,-0.203737 0.0041,-0.305501 0.0011,-0.0379 0.04034,-0.124992 0.0042,-0.113657 -1.05945,0.331967 -0.90469,0.08131 -0.871828,0.484709 0.01098,0.454656 0.0076,0.909456 0.0033,1.364176 -0.0024,0.32167 -0.0071,0.64329 -0.0075,0.96497 -0.0052,0.29526 -0.0098,0.59122 -0.04648,0.88465 -0.0337,0.27618 -0.05084,0.5529 -0.07531,0.82994 -0.03638,0.26474 -0.09385,0.52532 -0.150124,0.78643 -0.05304,0.24958 -0.103516,0.49973 -0.196017,0.73867 -0.035,0.0924 -0.07225,0.16977 -0.135578,0.24662 -0.02101,0.0255 -0.09575,0.0886 -0.06622,0.0738 0.41426,-0.20799 1.054168,-0.60218 0.679061,-0.37209 -0.229849,0.1397 -0.379937,0.11615 -0.636628,0.0716 -0.24344,-0.0397 -0.491016,-0.0624 -0.727432,-0.13566 -0.221967,-0.0923 -0.429842,-0.20111 -0.589928,-0.38771 -0.19485,-0.23679 -0.374795,-0.4898 -0.505267,-0.7683 -0.107238,-0.22835 -0.198194,-0.46159 -0.228243,-0.71425 -0.03163,-0.27885 -0.0236,-0.55895 -0.02334,-0.83925 -0.0013,-0.28758 0.0021,-0.57512 0.0035,-0.86269 -5.3e-4,-0.23427 -0.0016,-0.46855 -0.0011,-0.70282 2.65e-4,-0.19923 0.0019,-0.39845 0.0013,-0.59767 5.29e-4,-0.18916 0.0021,-0.378772 0.02418,-0.566902 0.03391,-0.242906 0.09706,-0.478977 0.19181,-0.705709 0.08342,-0.206029 0.192315,-0.398042 0.326657,-0.575721 0.138922,-0.203636 0.302548,-0.386336 0.50134,-0.534106 0.326835,-0.213558 0.202727,-0.129564 -0.637574,0.354608 -0.03287,0.01894 0.06623,-0.03721 0.100735,-0.05299 0.09669,-0.0442 0.194043,-0.05576 0.299238,-0.06287 0.184346,0.0077 0.369758,0.0163 0.546717,0.07401 0.181848,0.05403 0.365283,0.08482 0.507383,0.225293 0.189987,0.160964 0.329653,0.369387 0.426816,0.598212 0.143639,0.324498 0.242898,0.664192 0.275693,1.018805 0.04492,0.34875 0.05691,0.70135 0.02275,1.05182 -0.02106,0.29704 -0.05126,0.59361 -0.05623,0.89153 0.0063,0.0125 0.889352,-0.43742 0.882989,-0.44991 z" />
				<path
				   style="fill:#000000;fill-opacity:1;stroke-width:0.564999;paint-order:stroke fill markers"
				   id="path2404"
				   d="m 80.544254,99.191814 c 0.250147,-0.03597 0.487695,-0.118475 0.726969,-0.195831 0.234267,-0.08146 0.468487,-0.162441 0.704815,-0.237638 0.244629,-0.09643 0.500788,-0.143031 0.758032,-0.189828 0.266035,-0.05846 0.53677,-0.08489 0.808262,-0.09935 0.189754,-0.01061 0.374989,-0.04496 0.556347,-0.100044 0.0024,-5.29e-4 0.06749,-0.02506 0.08307,-0.0071 0.08158,0.09391 0.02674,0.296516 0.01667,0.400887 -0.05311,0.318211 -0.116766,0.633293 -0.195673,0.94589 -0.05442,0.29801 -0.151444,0.58501 -0.219392,0.87934 -0.03486,0.28544 -0.130564,0.55169 -0.218572,0.82312 -0.09504,0.29788 -0.223843,0.5819 -0.317503,0.88009 -0.104174,0.26848 -0.16746,0.54825 -0.226261,0.82917 -0.08108,0.31133 -0.138449,0.62766 -0.216223,0.93969 -0.04148,0.21164 -0.100978,0.41918 -0.164904,0.62492 -0.07024,0.15839 -0.153358,0.34062 0.08643,0.37979 0.380238,-0.25468 0.909683,-0.45833 1.271471,-0.78794 0.02543,-0.0208 0.0499,-0.043 0.0763,-0.0626 0.02273,-0.0169 0.167286,-0.11097 0.183071,-0.12069 0.04515,-0.0278 0.182755,-0.1076 0.136937,-0.0809 -0.759946,0.44257 -0.900628,0.51731 -0.529412,0.31505 2.349415,-1.35334 0.4587,-0.26573 0.265551,-0.1497 -0.0391,0.0235 0.08174,-0.0405 0.123069,-0.0598 0.122375,-0.0572 0.246634,-0.1106 0.369461,-0.16681 0.265107,-0.13201 0.545037,-0.23033 0.812835,-0.35568 0.233725,-0.11423 0.460716,-0.2414 0.692369,-0.35974 0.419521,-0.20353 0.810075,-0.4499 1.214208,-0.68709 0.03298,-0.0193 0.130643,-0.0795 0.09751,-0.0604 -0.247629,0.14261 -0.494025,0.28735 -0.741037,0.43101 0.406252,-0.21679 0.799229,-0.45322 1.19921,-0.68344 0.252024,-0.14506 -1.006252,0.58342 -0.754832,0.43732 0.307594,-0.17875 0.615574,-0.35683 0.923361,-0.53525 -0.252716,0.14665 -0.505735,0.29278 -0.758145,0.43995 -0.02721,0.0159 0.05543,-0.03 0.08254,-0.046 0.30408,-0.17987 0.61337,-0.35135 0.911013,-0.54169 0.02326,-0.0149 0.02995,-0.0464 0.04492,-0.0696 -0.0054,-0.0128 -0.913042,0.37252 -0.907592,0.38535 v 0 c -0.0173,0.0153 -0.07225,0.0572 -0.05195,0.046 0.258328,-0.14153 0.511447,-0.29237 0.76745,-0.43807 0.02727,-0.0155 -0.05416,0.0317 -0.08124,0.0475 -0.307729,0.17662 -0.615456,0.35323 -0.923184,0.52985 1.945314,-1.11962 -0.06806,0.0388 -0.167839,0.0978 -0.249256,0.14742 0.502759,-0.28753 0.753586,-0.43225 0.02904,-0.0168 -0.05842,0.0329 -0.0882,0.0483 -0.193604,0.10011 0.0084,-0.0125 -0.186809,0.0989 -0.311243,0.17935 -0.62315,0.35755 -0.933728,0.53804 -0.03317,0.0193 -0.130911,0.08 -0.09746,0.0612 0.248608,-0.13955 0.49579,-0.28164 0.743019,-0.42362 0.02904,-0.0167 -0.05853,0.0326 -0.08843,0.0477 -0.245766,0.12394 0.06144,-0.0396 -0.192167,0.0973 -0.235566,0.11412 -0.461547,0.24631 -0.695798,0.36293 -0.26256,0.13632 -0.545997,0.22546 -0.811049,0.35765 -0.122534,0.0566 -0.245094,0.11318 -0.368908,0.1669 -0.04284,0.0186 -0.08815,0.032 -0.128966,0.0547 -0.10109,0.0562 -2.062853,1.18472 -0.268579,0.15288 -0.522777,0.28577 -1.066234,0.55112 -1.53276,0.92481 -0.320778,0.24296 -1.074314,0.7047 0.425085,-0.18325 -0.143322,0.17868 0.01024,-0.16051 0.01693,-0.19642 0.06214,-0.20667 0.11258,-0.41678 0.156969,-0.62795 0.07094,-0.31232 0.122839,-0.62875 0.208505,-0.93775 0.06449,-0.2773 0.136435,-0.55293 0.231352,-0.82163 0.09744,-0.29769 0.228515,-0.58277 0.322109,-0.88198 0.08797,-0.27259 0.16936,-0.54483 0.213805,-0.82876 0.07518,-0.291544 0.15535,-0.581485 0.21581,-0.876675 0.08068,-0.316693 0.139858,-0.637376 0.191973,-0.96003 0.01632,-0.154987 0.06245,-0.474818 -0.121721,-0.565862 -0.02016,-0.01 -0.04497,0.0016 -0.06746,0.0024 -0.181816,0.05211 -0.358484,0.113244 -0.549968,0.124235 -0.274423,0.01336 -0.548976,0.03233 -0.818505,0.08904 -0.255082,0.05619 -0.517898,0.07527 -0.761844,0.177294 -0.235309,0.0832 -0.476694,0.148831 -0.708128,0.242946 -0.234233,0.07014 -0.460965,0.17123 -0.706829,0.193328 -0.0085,-0.01117 -0.798401,0.586928 -0.789942,0.598099 z" />
				<path
				   style="fill:#000000;fill-opacity:1;stroke-width:0.564999;paint-order:stroke fill markers"
				   id="path2406"
				   d="m 86.400234,99.024052 c 0.21209,-0.08072 0.419534,-0.172291 0.632219,-0.251483 0.235136,-0.07812 0.471813,-0.151879 0.708139,-0.22655 0.26407,-0.0807 0.523902,-0.173892 0.791313,-0.243263 0.242316,-0.05179 0.48345,-0.107013 0.729322,-0.139028 0.186949,-0.01188 0.371641,-0.03599 0.554601,-0.07611 0.01577,-0.0036 0.08074,-0.02945 0.105743,-0.0073 0.07439,0.06581 0.02262,0.323405 0.01249,0.398587 -0.08823,0.464412 -0.237812,0.913648 -0.39589,1.358082 -0.10059,0.323943 -0.274262,0.618843 -0.349925,0.950443 -0.04717,0.26455 -0.117509,0.52371 -0.165026,0.7884 -0.02736,0.24984 -0.05531,0.49915 -0.08818,0.74839 -0.05631,0.35968 -0.160557,0.70863 -0.259215,1.05831 -0.114943,0.28813 -0.186513,0.58854 -0.259797,0.88874 -0.06184,0.22628 -0.129942,0.45103 -0.13194,0.68703 0.02228,0.0585 0.01916,0.0821 0.09866,0.10372 0.08098,0.022 0.195088,-0.0497 0.260049,-0.0867 0.310795,-0.17735 0.620101,-0.35729 0.93015,-0.53594 0.113684,-0.0715 0.229196,-0.13933 0.345242,-0.20687 0.04205,-0.0245 0.167524,-0.099 0.125325,-0.0748 -0.829619,0.47612 -0.892167,0.50825 -0.532175,0.31308 0.314368,-0.14078 0.633503,-0.26783 0.94038,-0.42496 0.322106,-0.17628 0.64775,-0.34581 0.97165,-0.51878 0.241178,-0.12974 0.48554,-0.25298 0.731523,-0.3733 0.28997,-0.12216 0.588888,-0.22104 0.882195,-0.33482 0.101621,-0.0334 0.201475,-0.0716 0.300733,-0.11135 0.0086,0.0109 0.780669,-0.59679 0.772075,-0.60771 v 0 c -0.101084,0.0414 -0.199019,0.0909 -0.305525,0.1177 -0.295714,0.1109 -0.588875,0.22861 -0.888743,0.32897 -0.247266,0.11987 -0.494165,0.23996 -0.735232,0.37191 -0.326247,0.17228 -0.651314,0.34648 -0.975355,0.52282 -0.304376,0.1608 -0.618214,0.29789 -0.939011,0.42292 -0.549706,0.2846 -1.075695,0.61253 -1.608418,0.92727 0.250219,-0.14357 0.500441,-0.28715 0.750662,-0.43072 -0.06555,0.035 -0.164097,0.0738 -0.217834,0.12723 -0.01048,0.0104 -0.0075,0.0307 -0.01889,0.0401 -0.005,0.004 -0.0052,-0.012 -0.0079,-0.0179 -0.0021,-0.22738 0.08032,-0.44394 0.133644,-0.66235 0.06827,-0.29609 0.143129,-0.5897 0.244274,-0.87681 0.100668,-0.35689 0.214394,-0.71143 0.269785,-1.07916 0.03143,-0.24769 0.05691,-0.49574 0.08878,-0.74325 0.04773,-0.26275 0.120012,-0.51956 0.167674,-0.78229 0.08865,-0.3197 0.240522,-0.616071 0.335108,-0.934034 0.154491,-0.454075 0.30919,-0.910892 0.400984,-1.382512 0.01894,-0.151717 0.0681,-0.495038 -0.131529,-0.572637 -0.02389,-0.0093 -0.05066,0.0077 -0.076,0.01162 -0.177509,0.05672 -0.364376,0.07895 -0.549841,0.08991 -0.250288,0.02798 -0.494186,0.08183 -0.740495,0.132456 -0.27034,0.06391 -0.531748,0.154493 -0.796012,0.238945 -0.235225,0.07506 -0.470789,0.148236 -0.707035,0.219816 -0.209677,0.07736 -0.41687,0.159285 -0.622094,0.247732 -0.0086,-0.01103 -0.789278,0.595482 -0.7807,0.606523 z" />
				<path
				   style="fill:#000000;fill-opacity:1;stroke-width:0.564999;paint-order:stroke fill markers"
				   id="path2408"
				   d="m 97.662948,97.955988 c -0.205123,-0.18832 -0.396409,-0.390745 -0.601651,-0.57893 -0.22796,-0.201229 -0.459619,-0.401235 -0.723445,-0.553926 -0.180063,-0.119547 -0.370914,-0.214839 -0.572842,-0.29105 -0.208454,-0.06737 -0.426627,-0.09059 -0.644165,-0.104081 -0.234019,-0.0245 -0.450601,0.04754 -0.659347,0.144764 -0.575328,0.281818 -1.032904,0.547841 -1.394084,1.045554 -0.146426,0.228684 -0.18261,0.505674 -0.23807,0.766775 -0.06783,0.311074 -0.100668,0.626647 -0.111191,0.944343 -0.0048,0.326692 -0.02162,0.654069 0.0013,0.980273 0.03283,0.27494 0.03653,0.5528 0.07198,0.82723 0.03369,0.31191 0.139809,0.60898 0.234561,0.90609 0.10695,0.3582 0.274924,0.69009 0.45203,1.01731 0.0944,0.20652 0.210426,0.3977 0.349168,0.57689 0.116028,0.13775 0.270249,0.22658 0.437841,0.28606 0.218863,0.0795 0.452104,0.10026 0.682482,0.11843 0.220874,0.0196 0.436901,0.0289 0.650097,-0.0375 0.905198,-0.38214 1.028467,-0.4588 1.387335,-1.13221 0.173844,-0.28423 0.266779,-0.60549 0.384881,-0.91493 0.125707,-0.32191 0.189834,-0.65639 0.231331,-0.99783 0.0271,-0.35203 0.03138,-0.70507 0.03001,-1.057937 -0.0055,-0.397114 -0.0019,-0.794227 -7.93e-4,-1.19135 0.0024,-0.277326 -0.0013,-0.554781 0.006,-0.832046 0.0019,-0.01061 0.01503,-0.03662 0.0054,-0.03184 -0.304284,0.150868 -0.613756,0.294553 -0.900943,0.475864 -0.02732,0.01725 -0.0038,0.06452 -0.0061,0.09676 -0.01072,0.154202 -0.01942,0.308364 -0.0277,0.462727 -0.01976,0.401455 -0.01839,0.802442 0.0067,1.203462 0.04141,0.45643 0.0693,0.91577 0.147013,1.36789 0.06704,0.44181 0.192151,0.87221 0.335921,1.29448 0.0948,0.32881 0.235767,0.63834 0.414334,0.92925 0.220576,0.35605 0.482669,0.68306 0.780418,0.97697 0.211701,0.206 0.449503,0.37006 0.717624,0.49122 0.189545,0.0824 0.396155,0.11104 0.595202,0.1625 0.134582,0.0381 0.06774,0.0197 0.200519,0.0553 0.0079,0.0114 0.815916,-0.54512 0.808036,-0.55654 v 0 c -0.13252,-0.0326 -0.0657,-0.0149 -0.20046,-0.053 -0.19423,-0.0578 -0.39598,-0.0837 -0.586986,-0.15116 -0.263475,-0.11267 -0.506161,-0.2489 -0.71401,-0.45181 -0.294174,-0.28721 -0.554699,-0.60242 -0.763812,-0.95782 -0.165994,-0.28939 -0.311362,-0.58911 -0.409311,-0.9092 -0.143136,-0.41782 -0.268512,-0.84216 -0.329607,-1.28087 -0.0801,-0.44912 -0.10645,-0.90442 -0.140793,-1.358886 -0.02307,-0.398854 -0.02119,-0.797576 0.0048,-1.196462 0.009,-0.14061 0.01056,-0.191958 0.02617,-0.331073 0.0049,-0.04362 0.01003,-0.08727 0.01752,-0.130524 0.0053,-0.03058 0.04991,-0.101346 0.02074,-0.09076 -0.90578,0.328851 -0.946353,0.08897 -0.876093,0.429573 0.0076,0.275068 0.0038,0.550352 0.0072,0.825484 0.0024,0.39666 0.0083,0.793308 0.0024,1.189968 -0.0037,0.3499 -0.0021,0.70082 -0.03834,1.04925 -0.0416,0.33498 -0.117562,0.66085 -0.24039,0.97618 -0.116724,0.30647 -0.218239,0.62063 -0.389165,0.90269 -0.08342,0.15054 -0.161954,0.30352 -0.285946,0.42601 -0.02945,0.0291 -0.133469,0.0972 -0.09697,0.0776 0.219975,-0.11776 1.062569,-0.60485 0.650073,-0.37111 -0.229621,0.10009 -0.381709,0.0894 -0.628417,0.0733 -0.222726,-0.0135 -0.451429,-0.0259 -0.662408,-0.10448 -0.15522,-0.0417 -0.297757,-0.11489 -0.407919,-0.23463 -0.136969,-0.17403 -0.253891,-0.35848 -0.352276,-0.55737 -0.180708,-0.31828 -0.344245,-0.64493 -0.445683,-0.99857 -0.09128,-0.2929 -0.186428,-0.5879 -0.217591,-0.89459 -0.02956,-0.27268 -0.04445,-0.54697 -0.07431,-0.819706 -0.0167,-0.323149 -0.0065,-0.647261 0.0026,-0.970566 0.01863,-0.312454 0.04788,-0.624451 0.119616,-0.929962 0.0581,-0.252857 0.101357,-0.518724 0.261477,-0.73084 0.108889,-0.134814 0.226179,-0.265473 0.358002,-0.378656 0.235906,-0.202547 0.714746,-0.424138 -0.626689,0.329446 0.1978,-0.09969 0.397989,-0.201851 0.627108,-0.181846 0.211576,0.0074 0.424277,0.0217 0.6292,0.07897 0.20098,0.06874 0.389916,0.160036 0.568256,0.275656 0.265113,0.137962 0.491252,0.335627 0.715666,0.531175 0.202573,0.186507 0.39442,0.384802 0.582525,0.585835 0.0073,0.01193 0.851273,-0.505243 0.84396,-0.517178 z" />
				<path
				   style="fill:#000000;fill-opacity:1;stroke-width:0.564999;paint-order:stroke fill markers"
				   id="path2410"
				   d="m 101.9926,94.021187 c 0.17299,0.687022 0.29251,1.385794 0.40119,2.085387 0.0901,0.764077 0.25772,1.515838 0.40279,2.27066 0.14629,0.706913 0.25044,1.422159 0.40172,2.127926 0.10773,0.54146 0.20941,1.08394 0.3132,1.62613 0.063,0.45625 0.15488,0.90724 0.23455,1.36062 -0.0254,0.0116 -0.0508,0.0232 -0.0763,0.0348 0.005,0.0128 0.9096,-0.37704 0.90408,-0.38983 v 0 c 0.008,-0.0329 0.0156,-0.0658 0.0234,-0.0988 -0.0894,-0.44969 -0.17642,-0.89943 -0.25103,-1.35189 -0.10004,-0.54323 -0.19742,-1.08714 -0.31732,-1.62644 -0.14788,-0.704116 -0.28327,-1.410739 -0.41692,-2.117594 -0.14263,-0.755031 -0.29898,-1.507893 -0.39692,-2.270572 -0.11445,-0.703133 -0.24277,-1.403893 -0.36702,-2.105343 -0.006,-0.01209 -0.86194,0.442799 -0.85551,0.454896 z" />
				<path
				   style="fill:#000000;fill-opacity:1;stroke-width:0.564999;paint-order:stroke fill markers"
				   id="path2412"
				   d="m 98.161296,98.466425 c 0.351986,0.07977 0.693521,0.202554 1.038757,0.308366 0.39343,0.11485 0.792292,0.210222 1.193367,0.294122 0.40306,0.06359 0.79835,0.165658 1.20196,0.225845 0.37638,0.05662 0.75629,0.0523 1.13504,0.03167 0.54933,-0.03075 1.09802,-0.03807 1.64507,-0.09911 0.48323,-0.06167 0.96507,-0.129844 1.45069,-0.170278 0.56575,-0.04863 1.12438,-0.158438 1.68145,-0.265266 0.49727,-0.08236 0.97552,-0.238424 1.4394,-0.431451 0.21241,-0.09251 0.10972,-0.04527 0.30835,-0.141152 0.009,0.01072 0.76588,-0.595249 0.75731,-0.60596 v 0 c -0.19823,0.103273 -0.0954,0.05288 -0.30899,0.1504 -0.12527,0.05212 -0.24695,0.112853 -0.37345,0.161928 -0.34654,0.13444 -0.71089,0.226671 -1.07436,0.300312 -0.549,0.108384 -1.10213,0.206659 -1.65917,0.262089 -0.48876,0.03607 -0.97312,0.107243 -1.45872,0.171688 -0.14453,0.01773 -0.39215,0.05008 -0.53666,0.0597 -0.36542,0.02432 -0.73321,0.01439 -1.0987,0.03984 -0.373,0.01884 -0.74618,0.02759 -1.11775,-0.02138 -0.40449,-0.05305 -0.79971,-0.150278 -1.20135,-0.218871 -0.39942,-0.08018 -0.79636,-0.174977 -1.188517,-0.285287 -0.342506,-0.111733 -0.688319,-0.212018 -1.026851,-0.336111 -0.008,-0.0114 -0.814921,0.557501 -0.806876,0.568913 z" />
				<path
				   style="fill:#000000;fill-opacity:1;stroke-width:0.564999;paint-order:stroke fill markers"
				   id="path2414"
				   d="m 109.11669,102.18067 c -0.093,-0.15374 -0.21582,-0.2691 -0.38414,-0.33215 -0.0836,-0.019 -0.17415,-0.0247 -0.2517,0.0206 -0.67173,0.3926 -0.7648,0.31626 -1.03708,0.73025 -0.13088,0.21861 -0.191,0.46719 -0.19099,0.72009 0.0208,0.29914 0.19213,0.53314 0.39112,0.74301 0.14306,0.13637 0.30067,0.32151 0.51711,0.29061 0.83485,-0.50083 0.90599,-0.31141 0.92001,-0.94337 1.6e-4,-0.19381 0.0113,-0.38496 -0.0417,-0.5728 -0.041,-0.0989 -0.11479,-0.17467 -0.18425,-0.25359 -0.007,-0.0119 -0.84776,0.49669 -0.84057,0.50857 v 0 c 0.0604,0.0666 0.12744,0.12797 0.16096,0.2137 0.0439,0.17961 0.0291,0.36463 0.0264,0.54823 -0.004,0.0944 -0.003,0.20143 -0.0436,0.28934 -0.008,0.0172 -0.0474,0.0568 -0.0307,0.0479 0.27235,-0.14492 0.5357,-0.30612 0.80356,-0.45918 -0.0123,0.0154 -0.0206,0.0349 -0.0367,0.0461 -0.14069,0.0977 -0.33003,-0.15308 -0.41865,-0.22295 -0.18432,-0.18969 -0.34691,-0.39961 -0.35139,-0.67662 0.0141,-0.23882 0.0768,-0.47014 0.21688,-0.66772 0.0243,-0.0306 0.0468,-0.0629 0.073,-0.0919 0.0222,-0.0247 0.10139,-0.0843 0.072,-0.0688 -0.2616,0.13799 -0.51217,0.29605 -0.77171,0.43788 -0.082,0.0448 0.0748,-0.0699 0.13241,-0.0822 0.0239,-0.005 0.049,7.9e-4 0.0734,0.001 0.16196,0.0228 0.26957,0.1396 0.34409,0.27971 0.007,0.012 0.85938,-0.4937 0.85222,-0.50575 z" />
				<path
				   style="fill:#000000;fill-opacity:1;stroke-width:0.564999;paint-order:stroke fill markers"
				   id="path2416"
				   d="m 107.87253,102.66471 c 8e-4,0.19668 0.0465,0.3828 0.14432,0.55275 0.0768,0.13925 0.18467,0.25678 0.28689,0.37734 0.007,0.0119 0.85291,-0.49626 0.84572,-0.50822 v 0 c -0.0976,-0.11725 -0.20672,-0.22626 -0.28157,-0.36042 -0.0907,-0.15687 -0.12469,-0.33002 -0.11237,-0.51135 -0.006,-0.0125 -0.88935,0.43742 -0.88299,0.4499 z" />
				<path
				   style="fill:#000000;fill-opacity:1;stroke-width:0.564999;paint-order:stroke fill markers"
				   id="path2426"
				   d="m 120.43803,99.917841 c -0.0372,-0.292883 -0.0665,-0.586044 -0.12544,-0.875654 -0.0387,-0.323202 -0.19739,-0.584385 -0.40274,-0.827241 -0.13976,-0.172855 -0.30806,-0.315542 -0.4733,-0.462486 -0.13035,-0.116838 -0.30384,-0.164508 -0.46854,-0.212334 -0.17637,-0.04863 -0.35933,-0.05517 -0.541,-0.06068 -0.10673,0.0011 -0.2218,0.01775 -0.31637,0.07183 -0.92068,0.526336 -0.66629,0.287626 -0.99452,0.612757 -0.20173,0.151011 -0.35304,0.346824 -0.49327,0.55336 -0.13068,0.209794 -0.2503,0.423275 -0.32788,0.658498 -0.0851,0.225261 -0.10643,0.468225 -0.15547,0.703159 -0.047,0.20587 -0.0603,0.41602 -0.0637,0.62643 -0.0128,0.2942 0.009,0.58595 0.0367,0.87847 0.031,0.25933 0.10634,0.50773 0.18418,0.75569 0.0596,0.23956 0.19253,0.4533 0.32104,0.66154 0.0887,0.17792 0.18921,0.34749 0.29345,0.51659 0.0862,0.14451 0.19373,0.25613 0.33552,0.34517 0.18224,0.0999 0.38204,0.15949 0.57844,0.22417 0.19565,0.0732 0.40191,0.1054 0.60906,0.12257 0.14087,0.0122 0.28586,0.0125 0.41218,-0.0613 0.88803,-0.51861 0.65164,-0.32436 0.99222,-0.61426 0.14538,-0.14582 0.24001,-0.32853 0.32099,-0.51552 0.0902,-0.16536 0.1638,-0.33864 0.24447,-0.5088 0.0784,-0.19322 0.13033,-0.39562 0.19145,-0.59471 0.0726,-0.25998 0.1171,-0.52637 0.16988,-0.79081 0.0494,-0.27022 0.0603,-0.54488 0.069,-0.81876 0.0135,-0.29782 2.6e-4,-0.593043 -0.0475,-0.887196 -0.0492,-0.208383 -0.0244,-0.105796 -0.0745,-0.307784 -0.007,-0.01209 -0.86122,0.450196 -0.85468,0.462282 v 0 c 0.05,0.197345 0.0264,0.09749 0.0706,0.299596 0.0418,0.289692 0.0513,0.580662 0.0359,0.873082 -0.008,0.2694 -0.0235,0.53956 -0.0769,0.80442 -0.0535,0.26271 -0.0918,0.52944 -0.17835,0.78417 -0.0603,0.19697 -0.11114,0.39776 -0.20023,0.58444 -0.0758,0.17084 -0.15838,0.33845 -0.24061,0.50629 -0.0888,0.17643 -0.1839,0.35014 -0.34039,0.47658 -0.30333,0.24361 -0.072,0.0512 0.68291,-0.36709 0.0304,-0.0169 -0.0575,0.0394 -0.0881,0.056 -0.0779,0.0423 -0.0994,0.0488 -0.18802,0.0523 -0.0342,10e-4 -0.0685,-0.002 -0.10271,-0.004 -0.20141,-0.012 -0.40396,-0.0327 -0.59508,-0.10175 -0.18898,-0.0659 -0.3853,-0.11449 -0.56255,-0.21061 -0.13492,-0.0733 -0.23247,-0.17167 -0.31392,-0.30242 -0.10498,-0.16869 -0.20364,-0.33948 -0.29674,-0.515 -0.12654,-0.20088 -0.25258,-0.4066 -0.30946,-0.63969 -0.0761,-0.24156 -0.15152,-0.48319 -0.17757,-0.73668 -0.031,-0.28886 -0.0473,-0.57783 -0.0276,-0.86837 0.0105,-0.2054 0.0265,-0.410505 0.071,-0.61189 0.0456,-0.232638 0.0717,-0.470958 0.1628,-0.69188 0.0832,-0.225036 0.20347,-0.431808 0.33519,-0.631904 0.14626,-0.199451 0.30711,-0.382562 0.50551,-0.53267 0.33305,-0.250489 0.08,-0.05432 -0.68058,0.374242 -0.0214,0.01207 0.0389,-0.03045 0.0606,-0.04199 0.0696,-0.03702 0.14995,-0.06284 0.22765,-0.07328 0.17595,0.0029 0.35326,0.0054 0.5261,0.04241 0.1526,0.03767 0.31665,0.07952 0.4434,0.174549 0.16339,0.143655 0.33759,0.27447 0.47498,0.445674 0.19943,0.228722 0.34784,0.473276 0.38088,0.782691 0.0576,0.285493 0.0917,0.575438 0.10031,0.866658 0.006,0.0125 0.88774,-0.43662 0.88139,-0.449085 z" />
				<path
				   style="fill:#000000;fill-opacity:1;stroke-width:0.564999;paint-order:stroke fill markers"
				   id="path2430"
				   d="m 121.43627,99.435858 c 0.0671,0.474086 0.0681,0.954852 0.0787,1.432722 0.0153,0.4033 -0.006,0.80744 0.0183,1.2105 0.007,0.11894 0.0408,0.45727 0.0521,0.57538 0.0339,0.45712 0.13953,0.90448 0.20349,1.35783 0.0454,0.24419 0.022,0.49514 0.0552,0.7398 0.21244,0.339 0.0772,0.15957 0.90536,-0.5238 0.0415,-0.0343 0.009,-0.10721 0.0148,-0.16075 0.0207,-0.20614 0.04,-0.41186 0.056,-0.61846 0.037,-0.45155 0.11526,-0.89771 0.20262,-1.3418 0.0907,-0.42375 0.18811,-0.84696 0.29155,-1.26792 0.11868,-0.4411 0.26869,-0.87279 0.40311,-1.309239 0.13201,-0.392655 0.26747,-0.785032 0.42839,-1.166961 0.0498,-0.0901 0.0661,-0.143449 0.14779,-0.207123 0.0264,-0.02061 0.11756,-0.06415 0.0891,-0.04658 -1.21379,0.747871 -0.95703,0.379587 -0.59113,0.467746 0.33926,0.214712 0.47861,0.673579 0.59126,1.035426 0.19252,0.776101 0.25183,1.576971 0.28687,2.373401 0.0277,0.44987 0.0128,0.89825 -0.0263,1.3466 -0.0217,0.13935 -0.016,0.28276 -0.0362,0.42216 -0.004,0.029 -0.001,0.0634 -0.0208,0.0854 -0.009,0.0106 -0.0504,-0.0105 -0.0384,-0.0179 0.28313,-0.17586 0.57838,-0.33139 0.86758,-0.49709 -0.10567,-0.476 -0.11103,-0.97034 -0.11059,-1.45601 1.6e-4,-0.5942 0.11104,-1.17908 0.27865,-1.74685 0.14399,-0.429238 0.22251,-0.908721 0.53133,-1.257135 0.29444,-0.21345 0.33225,-0.236963 -0.66124,0.38353 -0.0267,0.01667 0.0576,-0.02612 0.0881,-0.03417 0.13236,-0.03497 0.22472,0.01024 0.34244,0.06687 0.30263,0.169114 0.47182,0.448138 0.63269,0.743035 0.2149,0.43778 0.29091,0.92215 0.37963,1.39678 0.0765,0.49482 0.11907,0.99445 0.1673,1.49274 0.0295,0.30296 0.0316,0.6069 0.0687,0.90903 0.0309,0.22148 0.0444,0.44464 0.0508,0.66799 0.002,0.0951 0.003,0.19022 0.003,0.28533 0.006,0.0124 0.8819,-0.43472 0.87558,-0.4471 v 0 c -0.001,-0.0955 -0.003,-0.191 -0.006,-0.28645 -0.009,-0.22562 -0.025,-0.45079 -0.0581,-0.67436 -0.0399,-0.29932 -0.041,-0.60143 -0.0803,-0.90096 -0.0611,-0.49787 -0.10748,-0.99738 -0.18022,-1.49367 -0.0869,-0.4863 -0.17449,-0.977495 -0.38421,-1.428917 -0.1733,-0.320368 -0.33246,-0.601048 -0.65439,-0.795353 -0.0932,-0.05546 -0.16105,-0.106691 -0.26853,-0.130426 -0.0444,-0.0098 -0.16604,-0.0071 -0.20972,0.01654 -0.889,0.482026 -0.68684,0.285959 -1.00185,0.613913 -0.26227,0.380971 -0.34023,0.847463 -0.48893,1.278123 -0.16471,0.57495 -0.26604,1.16769 -0.26151,1.76764 -0.004,0.50207 0.001,1.01072 0.0856,1.50666 0.30667,-0.116 0.61861,-0.21894 0.92002,-0.34801 0.0137,-0.006 -0.004,-0.0298 -0.003,-0.0447 0.002,-0.0309 0.008,-0.0615 0.0108,-0.0924 0.0116,-0.13856 0.0136,-0.27797 0.0267,-0.41645 0.0298,-0.44912 0.0383,-0.89754 -0.002,-1.34677 -0.0599,-0.80158 -0.13664,-1.603913 -0.29717,-2.392554 -0.11688,-0.407562 -0.25792,-0.861026 -0.6031,-1.135049 -0.44801,-0.193715 -0.52542,0.1 -1.1356,0.443679 -0.10652,0.06 -0.15427,0.198856 -0.20396,0.299932 -0.14898,0.385908 -0.28562,0.777015 -0.41504,1.169794 -0.13466,0.438538 -0.28482,0.872358 -0.40344,1.315658 -0.10219,0.4214 -0.19687,0.84542 -0.28512,1.26984 -0.0863,0.44798 -0.16565,0.89749 -0.20092,1.3529 -0.0174,0.20668 -0.0356,0.41309 -0.0669,0.61826 -0.008,0.0551 -0.0822,0.18013 -0.0287,0.16473 0.86817,-0.24953 0.82263,-0.71637 0.84921,-0.36831 -0.0364,-0.24221 -0.0187,-0.49177 -0.0707,-0.73277 -0.0738,-0.44755 -0.18699,-0.88946 -0.21997,-1.34295 -0.0549,-0.59205 -0.0762,-1.18398 -0.0686,-1.77878 -0.007,-0.488695 -0.0175,-0.977828 -0.0459,-1.465778 -0.007,-0.01236 -0.88027,0.451157 -0.87371,0.463513 z" />
				<path
				   style="fill:#000000;fill-opacity:1;stroke-width:0.564999;paint-order:stroke fill markers"
				   id="path2984"
				   d="m 115.32738,98.547858 c -0.10888,-0.535834 -0.3221,-1.047184 -0.55394,-1.540407 -0.0845,-0.157202 -0.32594,-0.630639 -0.50268,-0.702032 -0.0486,-0.01966 -0.10374,-0.0158 -0.15561,-0.02368 -0.14703,0.02754 -0.19298,0.024 -0.32905,0.10291 -0.33388,0.193608 -0.66964,0.385109 -0.99055,0.599545 -0.13834,0.09245 -0.36095,0.42078 -0.46191,0.56033 -0.31184,0.437999 -0.53199,0.920358 -0.71192,1.424257 -0.15917,0.466624 -0.25851,0.946663 -0.29883,1.437249 -0.0103,0.61531 0.17394,1.19843 0.37665,1.77111 0.17377,0.45939 0.35412,0.92361 0.63668,1.32833 0.18071,0.21458 0.3466,0.44344 0.58087,0.60246 0.24741,0.15663 0.53999,0.16723 0.8216,0.13107 0.0664,-0.0199 0.13447,-0.0348 0.19918,-0.0596 0.075,-0.0287 0.14889,-0.0612 0.21883,-0.10056 0.60171,-0.33896 1.13387,-0.6267 1.63326,-1.07792 0.26654,-0.25377 0.4766,-0.55713 0.71772,-0.83309 0.084,-0.10831 0.041,-0.0591 0.12749,-0.14898 -0.005,-0.0128 -0.91185,0.36881 -0.90645,0.38163 v 0 c -0.0783,0.0951 -0.0381,0.0454 -0.12023,0.14916 -0.22384,0.27942 -0.43911,0.56786 -0.70356,0.81136 -0.17734,0.1524 -0.18364,0.16441 -0.37469,0.3019 -0.0712,0.0512 -0.2957,0.18718 -0.21675,0.14903 0.20296,-0.0981 0.39545,-0.21659 0.59047,-0.32965 0.0669,-0.0388 -0.13532,0.0752 -0.20591,0.10672 -0.0598,0.0267 -0.12296,0.0451 -0.18445,0.0676 -0.26066,0.0521 -0.53418,0.0593 -0.77145,-0.0802 -0.23718,-0.13586 -0.39633,-0.35951 -0.57311,-0.56272 -0.28681,-0.38966 -0.47625,-0.84028 -0.64835,-1.28995 -0.19026,-0.56484 -0.37671,-1.13904 -0.34188,-1.743893 0.0498,-0.480778 0.14169,-0.953871 0.3015,-1.411478 0.18415,-0.497716 0.41603,-0.972021 0.73004,-1.40235 0.11328,-0.149802 0.1749,-0.240869 0.30647,-0.376182 0.0547,-0.05631 0.24583,-0.189524 0.17313,-0.159824 -0.23143,0.09453 -0.43856,0.240117 -0.65889,0.358248 -0.0516,0.02769 0.0993,-0.06303 0.15281,-0.0869 0.0458,-0.02045 0.0957,-0.03021 0.14355,-0.04532 0.0385,-0.0094 0.0764,-0.0346 0.1155,-0.02815 0.1468,0.02421 0.44325,0.529759 0.5046,0.648489 0.23746,0.475273 0.46705,0.98407 0.49687,1.521399 0.006,0.01249 0.88935,-0.437417 0.88299,-0.449906 z" />
			</g>
			<g
			   id="g8689"
			   style="mix-blend-mode:normal;fill:none;stroke:#000000;stroke-width:0.5;stroke-linecap:square;stroke-linejoin:miter;stroke-miterlimit:4;stroke-dasharray:none;stroke-dashoffset:0;stroke-opacity:1;paint-order:normal;filter:url(#filter8985)">
				<path
				   style="fill:none;stroke:#000000;stroke-width:0.5;stroke-linecap:square;stroke-linejoin:miter;stroke-miterlimit:4;stroke-dasharray:none;stroke-dashoffset:0;stroke-opacity:1;paint-order:normal"
				   d="m 71.965949,122.43136 c -1.854219,-0.94762 -3.490945,-2.6012 -3.951085,-4.61737 -0.477488,-2.44552 2.614719,-2.52904 4.367721,-2.27471 1.521416,0.20581 3.15553,1.5517 4.449802,2.87394 1.305843,1.73537 3.948005,1.89658 5.031921,-0.20089 1.255832,-1.17136 2.649513,-1.80578 4.056711,-2.8396 2.06845,-1.40631 4.749312,-1.39423 7.185737,-1.2332 1.562683,0.4461 3.057642,0.63917 4.173037,1.47653 l 0.152128,0.008 0.01014,0.0735"
				   id="path3212" />
				<path
				   style="fill:none;stroke:#000000;stroke-width:0.5;stroke-linecap:square;stroke-linejoin:miter;stroke-miterlimit:4;stroke-dasharray:none;stroke-dashoffset:0;stroke-opacity:1;paint-order:normal"
				   d="m 67.358796,118.32703 c 1.7231,0.30038 6.193125,-0.66194 5.725373,1.72146 -2.007092,1.17329 2.568452,0.47271 2.046006,1.24689 -0.478718,0.75891 -0.656354,2.47733 0.718854,3.04333 0.618552,1.00174 1.497803,2.38577 -0.224323,1.10206 -1.14892,-0.27664 -4.088088,-1.14571 -2.328705,0.81724 0.851563,2.70001 -2.163747,-0.12019 -2.789048,-1.01103 -0.859055,-1.00823 -1.509386,-2.74602 -1.136552,-0.47962 -0.315808,1.64007 -1.89602,-1.14533 -1.496805,-2.06994 -0.636474,-1.27867 1.210109,-4.18834 -0.514803,-4.3706"
				   id="path3214" />
				<path
				   style="fill:none;stroke:#000000;stroke-width:0.5;stroke-linecap:square;stroke-linejoin:miter;stroke-miterlimit:4;stroke-dasharray:none;stroke-dashoffset:0;stroke-opacity:1;paint-order:normal"
				   d="m 82.594515,118.37465 c 0.749575,-0.071 2.081091,-0.40827 2.19062,-0.81134 -0.01421,2.92124 2.502371,0.44055 3.407629,-0.2434 1.241687,-0.69346 2.388673,-1.14975 2.352889,0.73021 1.010489,0.88035 3.248264,-2.1394 3.732166,0.4868 0.818581,-1.71287 4.077751,-2.53135 2.271755,-4.70567 -0.458567,-1.36939 -4.194523,-3.97504 -2.718782,-0.93823 -0.983187,-0.0815 -3.957436,-1.4747 -4.33989,-1.09004 1.421936,2.14645 -2.453632,0.44938 -3.463847,0.69562 -1.274911,-0.0703 -3.436575,1.00993 -0.874599,1.19603 0.30886,1.49445 -3.321279,2.17253 -2.630018,4.2751 l 0.07206,0.40511 z"
				   id="path3216" />
				<path
				   style="fill:none;stroke:#000000;stroke-width:0.5;stroke-linecap:square;stroke-linejoin:miter;stroke-miterlimit:4;stroke-dasharray:none;stroke-dashoffset:0;stroke-opacity:1;paint-order:normal"
				   d="m 97.442061,115.69716 c 0.928634,-1.02323 3.141289,-2.05446 4.218969,-3.89437 2.49068,-2.71096 -2.145969,3.38494 0.23649,1.14618 1.04881,-0.89286 4.68375,-2.97181 3.50175,-0.15299 -0.12754,1.13063 2.14898,-0.82967 3.06594,0.22935 1.13544,0.39716 4.08625,0.95477 1.30923,1.77939 -2.2431,-0.0661 1.71332,0.7292 1.86611,2.19063"
				   id="path3218" />
				<path
				   style="fill:none;stroke:#000000;stroke-width:0.5;stroke-linecap:square;stroke-linejoin:miter;stroke-miterlimit:4;stroke-dasharray:none;stroke-dashoffset:0;stroke-opacity:1;paint-order:normal"
				   d="m 111.64055,116.99535 c -1.05926,1.97853 -4.73031,-1.2596 -3.76154,1.92873 -0.8912,-0.55517 -3.09511,-2.40299 -3.35469,-2.18588 0.56017,1.02191 0.80371,2.31786 -0.67681,1.30042 -1.05289,-0.74948 -2.0546,-0.89432 -1.86194,0.74178 -1.77108,-0.50241 -2.158444,-1.91284 -3.555766,-2.81839 -0.214319,-0.29237 -1.627896,-1.38913 -0.987746,-0.26471"
				   id="path3220" />
				<path
				   style="fill:none;stroke:#000000;stroke-width:0.5;stroke-linecap:square;stroke-linejoin:miter;stroke-miterlimit:4;stroke-dasharray:none;stroke-dashoffset:0;stroke-opacity:1;paint-order:normal"
				   d="m 124.70311,120.24074 c 1.57499,-1.53807 2.44701,-4.64921 0.54829,-6.23701 -1.56979,-1.85703 -4.05962,-0.14571 -4.92957,1.53123 -1.63696,1.06094 -3.15239,2.68625 -5.24859,2.49261 -2.0861,0.24975 -3.70715,-1.03651 -5.62335,-1.68123 -1.95459,-0.45242 -3.67643,-1.53552 -5.69683,-1.77246 -1.8225,-0.72075 -3.991122,0.0836 -5.41846,0.39331 -0.385215,0.10879 -0.640937,0.44349 -0.892469,0.73014"
				   id="path3222" />
				<path
				   style="fill:none;stroke:#000000;stroke-width:0.5;stroke-linecap:square;stroke-linejoin:miter;stroke-miterlimit:4;stroke-dasharray:none;stroke-dashoffset:0;stroke-opacity:1;paint-order:normal"
				   d="m 126.16349,117.72561 c 1.20812,-0.98204 2.63629,-0.64713 1.90821,1.04319 -0.48875,1.24654 -0.67376,1.98584 -1.0157,2.68895 -0.72941,0.92307 -1.90608,2.92394 -1.50089,0.44621 -1.10935,0.41863 -2.88211,2.01065 -3.80823,2.84476 0.41025,-2.20634 -1.58911,-1.19493 -2.13652,-0.70237 0.71883,-1.1202 0.55523,-4.19013 -0.0304,-4.22214 1.33685,-0.48165 5.01283,-0.67774 3.41941,-2.82876 1.71307,-0.22321 4.26427,-1.12899 5.38278,0.75354"
				   id="path3224" />
				<path
				   style="fill:none;stroke:#000000;stroke-width:0.5;stroke-linecap:square;stroke-linejoin:miter;stroke-miterlimit:4;stroke-dasharray:none;stroke-dashoffset:0;stroke-opacity:1;paint-order:normal"
				   d="m 106.28567,126.97487 c 2.27532,-0.42395 2.68182,-2.29506 2.3835,-4.23267 0.48319,-1.67463 -3.24501,-1.4104 -0.96913,-0.24299 1.77689,0.87437 2.74396,0.006 2.64223,-1.77163 0.17213,-2.49928 -3.243,-1.61163 -4.67916,-1.05547 -1.62612,0.57547 -3.71571,0.5004 -5.13804,-0.72959"
				   id="path3226" />
				<path
				   style="fill:none;stroke:#000000;stroke-width:0.5;stroke-linecap:square;stroke-linejoin:miter;stroke-miterlimit:4;stroke-dasharray:none;stroke-dashoffset:0;stroke-opacity:1;paint-order:normal"
				   d="m 98.959428,117.76147 c 0.729925,2.02136 -1.20207,4.02319 -3.1088,2.76055 -1.04267,-0.77925 -1.29355,-2.33133 -0.646633,-3.43212"
				   id="path3232" />
				<path
				   style="fill:none;stroke:#000000;stroke-width:0.5;stroke-linecap:square;stroke-linejoin:miter;stroke-miterlimit:4;stroke-dasharray:none;stroke-dashoffset:0;stroke-opacity:1;paint-order:normal"
				   d="m 100.52507,118.94252 c 0.49706,2.25174 -2.452158,4.58304 -3.25683,1.62929"
				   id="path3234" />
				<path
				   style="fill:none;stroke:#000000;stroke-width:0.5;stroke-linecap:square;stroke-linejoin:miter;stroke-miterlimit:4;stroke-dasharray:none;stroke-dashoffset:0;stroke-opacity:1;paint-order:normal"
				   d="m 98.064094,121.96457 c 0.57113,1.8209 -1.988969,3.54676 -3.407248,2.28811 -0.409788,-0.41868 -0.742234,-1.17033 -0.721237,-1.79069"
				   id="path3236" />
				<path
				   style="fill:none;stroke:#000000;stroke-width:0.5;stroke-linecap:square;stroke-linejoin:miter;stroke-miterlimit:4;stroke-dasharray:none;stroke-dashoffset:0;stroke-opacity:1;paint-order:normal"
				   d="m 96.19881,120.96976 c -5.17e-4,2.40908 -4.36766,1.71506 -3.745418,-0.55338 0.183107,-1.16011 1.526253,-1.79277 2.551644,-2.00826"
				   id="path3238" />
				<path
				   style="fill:none;stroke:#000000;stroke-width:0.5;stroke-linecap:square;stroke-linejoin:miter;stroke-miterlimit:4;stroke-dasharray:none;stroke-dashoffset:0;stroke-opacity:1;paint-order:normal"
				   d="m 92.04545,119.37805 c -1.916929,-0.0566 -4.261433,-0.22089 -5.919163,0.17405 -1.709525,-0.26812 -4.026752,1.76952 -2.934541,3.32015 1.149474,1.1584 5.518651,0.23832 4.153196,-1.30571 -1.919253,-0.41604 -2.606504,1.8326 -2.959576,3.28294 -0.905711,1.96827 1.104556,3.31555 2.909842,3.00932"
				   id="path3240" />
				<path
				   style="fill:none;stroke:#000000;stroke-width:0.5;stroke-linecap:square;stroke-linejoin:miter;stroke-miterlimit:4;stroke-dasharray:none;stroke-dashoffset:0;stroke-opacity:1;paint-order:normal"
				   d="m 93.164622,122.11383 c -1.998888,0.29592 -2.353076,2.85994 0.04974,2.68597 2.561929,-0.6775 -2.425729,0.64844 -0.309116,1.89433 0.811317,0.62601 1.791021,0.83474 2.79616,0.84138"
				   id="path3242" />
				<path
				   style="fill:none;stroke:#000000;stroke-width:0.5;stroke-linecap:square;stroke-linejoin:miter;stroke-miterlimit:4;stroke-dasharray:none;stroke-dashoffset:0;stroke-opacity:1;paint-order:normal"
				   d="m 95.154254,124.62571 c -0.590174,2.21523 4.252844,3.88018 4.324771,1.1989 -0.0075,-1.22646 -1.10419,-2.20458 -2.061562,-2.81547"
				   id="path3244" />
				<path
				   style="fill:none;stroke:#000000;stroke-width:0.5;stroke-linecap:square;stroke-linejoin:miter;stroke-miterlimit:4;stroke-dasharray:none;stroke-dashoffset:0;stroke-opacity:1;paint-order:normal"
				   d="m 100.72523,122.08892 c 1.70416,1.95652 -0.16726,2.90226 -2.064247,2.46218"
				   id="path3246" />
				<path
				   style="fill:none;stroke:#000000;stroke-width:0.5;stroke-linecap:square;stroke-linejoin:miter;stroke-miterlimit:4;stroke-dasharray:none;stroke-dashoffset:0;stroke-opacity:1;paint-order:normal"
				   d="m 102.7646,120.14903 c 1.938,1.81819 -1.3896,2.52075 -2.58654,1.81546"
				   id="path3248" />
				<path
				   style="fill:none;stroke:#000000;stroke-width:0.5;stroke-linecap:square;stroke-linejoin:miter;stroke-miterlimit:4;stroke-dasharray:none;stroke-dashoffset:0;stroke-opacity:1;paint-order:normal"
				   d="m 102.14284,122.41224 c 2.54958,1.43623 -0.22951,3.51991 -1.93989,2.63614 h -0.0249"
				   id="path3250" />
				<path
				   style="fill:none;stroke:#000000;stroke-width:0.5;stroke-linecap:square;stroke-linejoin:miter;stroke-miterlimit:4;stroke-dasharray:none;stroke-dashoffset:0;stroke-opacity:1;paint-order:normal"
				   d="m 100.82471,125.14799 c 0.83514,2.08524 -1.634533,4.1289 -3.034169,2.01446"
				   id="path3252" />
				<path
				   style="fill:none;stroke:#000000;stroke-width:0.5;stroke-linecap:square;stroke-linejoin:miter;stroke-miterlimit:4;stroke-dasharray:none;stroke-dashoffset:0;stroke-opacity:1;paint-order:normal"
				   d="m 100.72523,128.20705 c 2.03376,1.63678 -1.390405,4.60799 -2.487023,2.33774 -0.279014,-0.1488 -0.378045,-0.45569 -0.497409,-0.72124"
				   id="path3254" />
				<path
				   style="fill:none;stroke:#000000;stroke-width:0.5;stroke-linecap:square;stroke-linejoin:miter;stroke-miterlimit:4;stroke-dasharray:none;stroke-dashoffset:0;stroke-opacity:1;paint-order:normal"
				   d="m 99.680672,128.15731 c 0.664658,1.64633 -0.862155,2.51807 -1.939872,1.66623"
				   id="path3256" />
				<path
				   style="fill:none;stroke:#000000;stroke-width:0.5;stroke-linecap:square;stroke-linejoin:miter;stroke-miterlimit:4;stroke-dasharray:none;stroke-dashoffset:0;stroke-opacity:1;paint-order:normal"
				   d="m 97.790539,127.16245 c 0.828916,1.83758 -0.362153,4.15887 -2.561674,3.38244 -1.870108,-1.21969 -0.807229,-3.6679 1.442487,-3.48185"
				   id="path3258" />
				<path
				   style="fill:none;stroke:#000000;stroke-width:0.5;stroke-linecap:square;stroke-linejoin:miter;stroke-miterlimit:4;stroke-dasharray:none;stroke-dashoffset:0;stroke-opacity:1;paint-order:normal"
				   d="m 98.088962,130.79358 c -2.569024,-0.59517 -1.567292,3.0876 -0.229859,3.45168 2.590297,0.45203 1.554075,-3.01317 0.05577,-3.67561 l -0.298448,-0.0995"
				   id="path3260" />
			</g>
			<g
			   id="g5172"
			   style="mix-blend-mode:normal;stroke:#898989;stroke-width:0.501;stroke-linecap:round;stroke-linejoin:round;stroke-miterlimit:4;stroke-dasharray:none;stroke-opacity:1;filter:url(#filter8989)">
				<path
				   style="fill:none;stroke:#898989;stroke-width:0.501;stroke-linecap:round;stroke-linejoin:round;stroke-miterlimit:4;stroke-dasharray:none;stroke-opacity:1"
				   d="m 70.224392,107.09586 c -1.577116,-1.76048 -2.235567,2.53438 -0.11746,2.03634 l 0.215212,-0.0572"
				   id="path3611" />
				<path
				   style="fill:none;stroke:#898989;stroke-width:0.501;stroke-linecap:round;stroke-linejoin:round;stroke-miterlimit:4;stroke-dasharray:none;stroke-opacity:1"
				   d="m 73.058778,106.87595 c -2.109332,-1.0392 -1.867941,3.5382 -0.09774,1.637 0.387527,-0.48798 0.415847,-1.28639 -0.02442,-1.75927"
				   id="path3613" />
				<path
				   style="fill:none;stroke:#898989;stroke-width:0.501;stroke-linecap:round;stroke-linejoin:round;stroke-miterlimit:4;stroke-dasharray:none;stroke-opacity:1"
				   d="m 74.304932,106.68048 c 0.152102,0.93235 0.117185,1.89419 0.07332,2.83439"
				   id="path3615" />
				<path
				   style="fill:none;stroke:#898989;stroke-width:0.501;stroke-linecap:round;stroke-linejoin:round;stroke-miterlimit:4;stroke-dasharray:none;stroke-opacity:1"
				   d="m 74.304932,106.68048 c 0.940747,-0.50901 1.861489,1.58235 0.317651,1.31941"
				   id="path3617" />
				<path
				   style="fill:none;stroke:#898989;stroke-width:0.501;stroke-linecap:round;stroke-linejoin:round;stroke-miterlimit:4;stroke-dasharray:none;stroke-opacity:1"
				   d="m 76.650632,106.77821 c 0.602715,0 1.205429,0 1.808144,0"
				   id="path3619" />
				<path
				   style="fill:none;stroke:#898989;stroke-width:0.501;stroke-linecap:round;stroke-linejoin:round;stroke-miterlimit:4;stroke-dasharray:none;stroke-opacity:1"
				   d="m 77.456966,106.92482 c 0.07484,0.74885 0.460451,1.41338 0.562008,2.15019"
				   id="path3621" />
				<path
				   style="fill:none;stroke:#898989;stroke-width:0.501;stroke-linecap:round;stroke-linejoin:round;stroke-miterlimit:4;stroke-dasharray:none;stroke-opacity:1"
				   d="m 79.753798,106.75378 c 0.06202,0.60173 2.2e-5,1.2055 0,1.80814"
				   id="path3623" />
				<path
				   style="fill:none;stroke:#898989;stroke-width:0.501;stroke-linecap:round;stroke-linejoin:round;stroke-miterlimit:4;stroke-dasharray:none;stroke-opacity:1"
				   d="m 82.417144,107.1936 c -1.427324,-2.21535 -3.139467,2.36268 -0.464252,1.85701 0.160083,0.0857 0.162911,-0.13398 0.293214,-0.1466"
				   id="path3625" />
				<path
				   style="fill:none;stroke:#898989;stroke-width:0.501;stroke-linecap:round;stroke-linejoin:round;stroke-miterlimit:4;stroke-dasharray:none;stroke-opacity:1"
				   d="m 85.324835,106.85152 c 0,0.62715 0,1.25429 0,1.88144"
				   id="path3627" />
				<path
				   style="fill:none;stroke:#898989;stroke-width:0.501;stroke-linecap:round;stroke-linejoin:round;stroke-miterlimit:4;stroke-dasharray:none;stroke-opacity:1"
				   d="m 86.644291,106.80265 c 0.181709,0.65065 -0.179757,1.26839 -0.17104,1.90588"
				   id="path3629" />
				<path
				   style="fill:none;stroke:#898989;stroke-width:0.501;stroke-linecap:round;stroke-linejoin:round;stroke-miterlimit:4;stroke-dasharray:none;stroke-opacity:1"
				   d="m 85.349269,107.82889 c 0.340783,-0.0391 0.684154,-0.0244 1.026242,-0.0244"
				   id="path3631" />
				<path
				   style="fill:none;stroke:#898989;stroke-width:0.501;stroke-linecap:round;stroke-linejoin:round;stroke-miterlimit:4;stroke-dasharray:none;stroke-opacity:1"
				   d="m 87.792707,106.80265 c 0.212485,0.29156 0.605379,0.41881 0.757465,0.75746"
				   id="path3633" />
				<path
				   style="fill:none;stroke:#898989;stroke-width:0.501;stroke-linecap:round;stroke-linejoin:round;stroke-miterlimit:4;stroke-dasharray:none;stroke-opacity:1"
				   d="m 88.550172,106.85152 c 0.27041,0.66158 -0.20073,1.30335 -0.195479,1.95475"
				   id="path3635" />
				<path
				   style="fill:none;stroke:#898989;stroke-width:0.501;stroke-linecap:round;stroke-linejoin:round;stroke-miterlimit:4;stroke-dasharray:none;stroke-opacity:1"
				   d="m 89.723022,108.7574 c 0.650188,-0.88305 0.498358,-2.66688 1.050697,-0.65973 0.602098,-0.031 0.173453,-2.21099 0.77758,-0.35552 0.185279,0.30501 0.148612,0.74839 0.41972,0.99077"
				   id="path3637" />
				<path
				   style="fill:none;stroke:#898989;stroke-width:0.501;stroke-linecap:round;stroke-linejoin:round;stroke-miterlimit:4;stroke-dasharray:none;stroke-opacity:1"
				   d="m 93.217136,108.6841 c 0.1419,-0.79044 0.03801,-2.50206 0.708614,-0.85521 0.551267,1.67032 0.617316,0.73502 0.488657,-0.43982 0,-0.27692 0,-0.55384 0,-0.83076"
				   id="path3639" />
				<path
				   style="fill:none;stroke:#898989;stroke-width:0.501;stroke-linecap:round;stroke-linejoin:round;stroke-miterlimit:4;stroke-dasharray:none;stroke-opacity:1"
				   d="m 96.931161,106.90039 c -2.001381,-0.27063 -0.537865,3.2832 0.219896,1.49046 0.139318,-0.55588 0.08282,-1.03968 -0.219896,-1.49046 z"
				   id="path3641" />
				<path
				   style="fill:none;stroke:#898989;stroke-width:0.501;stroke-linecap:round;stroke-linejoin:round;stroke-miterlimit:4;stroke-dasharray:none;stroke-opacity:1"
				   d="m 98.494963,106.70491 c 0.134331,1.44979 -0.41604,2.79698 1.588247,2.248"
				   id="path3643" />
				<path
				   style="fill:none;stroke:#898989;stroke-width:0.501;stroke-linecap:round;stroke-linejoin:round;stroke-miterlimit:4;stroke-dasharray:none;stroke-opacity:1"
				   d="m 102.72211,107.04699 c -2.12769,-1.92982 -1.96089,3.32212 -0.0244,1.51496 0.20921,-0.45325 0.36929,-1.08152 0.0244,-1.51496 z"
				   id="path3645" />
				<path
				   style="fill:none;stroke:#898989;stroke-width:0.501;stroke-linecap:round;stroke-linejoin:round;stroke-miterlimit:4;stroke-dasharray:none;stroke-opacity:1"
				   d="m 105.38546,106.90039 c -1.65434,-0.43505 -2.00518,2.88602 -0.12217,2.12571 0.73856,-0.70871 -1.03496,-1.32803 0.3406,-1.09958 h 0.11379 0.0831"
				   id="path3647" />
				<path
				   style="fill:none;stroke:#898989;stroke-width:0.501;stroke-linecap:round;stroke-linejoin:round;stroke-miterlimit:4;stroke-dasharray:none;stroke-opacity:1"
				   d="m 106.58274,106.75378 c 0.33546,0.22709 0.54322,0.68459 0.9041,0.8308"
				   id="path3649" />
				<path
				   style="fill:none;stroke:#898989;stroke-width:0.501;stroke-linecap:round;stroke-linejoin:round;stroke-miterlimit:4;stroke-dasharray:none;stroke-opacity:1"
				   d="m 107.68229,106.70491 c -0.13412,0.76577 -0.26163,1.53808 -0.2199,2.32127"
				   id="path3651" />
				<path
				   style="fill:none;stroke:#898989;stroke-width:0.501;stroke-linecap:round;stroke-linejoin:round;stroke-miterlimit:4;stroke-dasharray:none;stroke-opacity:1"
				   d="m 111.64066,108.02437 c 0.0426,1.07187 -1.79198,2.28447 -1.34392,0.53757 1.12826,-0.17441 1.88697,-2.54443 0.34204,-1.44165 -0.18997,1.17961 1.33653,1.93467 1.97912,2.73665"
				   id="path3659" />
				<path
				   style="fill:none;stroke:#898989;stroke-width:0.501;stroke-linecap:round;stroke-linejoin:round;stroke-miterlimit:4;stroke-dasharray:none;stroke-opacity:1"
				   d="m 114.08409,108.70853 c 0.19402,-1.13077 0.62241,-2.64636 1.19721,-0.73302 0.38319,1.09055 0.0621,-2.57002 0.63151,-0.71579 0.23358,0.51724 0.33095,1.07275 0.63925,1.54654"
				   id="path3663" />
				<path
				   style="fill:none;stroke:#898989;stroke-width:0.501;stroke-linecap:round;stroke-linejoin:round;stroke-miterlimit:4;stroke-dasharray:none;stroke-opacity:1"
				   d="m 118.9221,106.87595 c -2.03817,-0.49172 -0.79505,2.98206 0.43993,1.90232 0.20597,-0.6133 0.015,-1.608 -0.43993,-1.90232 z"
				   id="path3665" />
				<path
				   style="fill:none;stroke:#898989;stroke-width:0.501;stroke-linecap:round;stroke-linejoin:round;stroke-miterlimit:4;stroke-dasharray:none;stroke-opacity:1"
				   d="m 120.65694,106.77821 c -0.0353,0.29757 0.85856,1.38147 0.75746,2.51675"
				   id="path3667" />
				<path
				   style="fill:none;stroke:#898989;stroke-width:0.501;stroke-linecap:round;stroke-linejoin:round;stroke-miterlimit:4;stroke-dasharray:none;stroke-opacity:1"
				   d="m 120.65694,106.77821 c 1.06382,-0.67577 2.06825,0.62209 0.7086,1.02631 0.9512,-0.10467 1.35327,1.04082 1.19727,1.80806"
				   id="path3669" />
				<path
				   style="fill:none;stroke:#898989;stroke-width:0.501;stroke-linecap:round;stroke-linejoin:round;stroke-miterlimit:4;stroke-dasharray:none;stroke-opacity:1"
				   d="m 125.27504,107.07143 c -1.57099,-0.60056 -1.54926,0.17019 -1.3194,1.42418 -0.2602,0.98872 0.92652,0.29833 1.4172,0.4083"
				   id="path3671" />
				<path
				   style="fill:none;stroke:#898989;stroke-width:0.501;stroke-linecap:round;stroke-linejoin:round;stroke-miterlimit:4;stroke-dasharray:none;stroke-opacity:1"
				   d="m 123.90671,107.82889 c 0.13475,-9e-4 0.67231,-0.0172 0.80634,-0.0244"
				   id="path3673" />
			</g>
		</g>
	</g>
</svg>
